<mxfile host="app.diagrams.net" agent="Mozilla/5.0 (Windows NT 10.0; Win64; x64) AppleWebKit/537.36 (KHTML, like Gecko) Chrome/127.0.0.0 Safari/537.36" version="24.7.6">
  <diagram name="Page-1" id="5yh8VFv7Tk_49lcehpl6">
    <mxGraphModel dx="1149" dy="504" grid="1" gridSize="10" guides="1" tooltips="1" connect="1" arrows="1" fold="1" page="1" pageScale="1" pageWidth="850" pageHeight="1100" math="0" shadow="0">
      <root>
        <mxCell id="0" />
        <mxCell id="1" parent="0" />
        <mxCell id="JH7_bKmLKvwizB0ivAQK-2" value="" style="shape=image;verticalLabelPosition=bottom;labelBackgroundColor=default;verticalAlign=top;aspect=fixed;imageAspect=0;image=data:image/png,iVBORw0KGgoAAAANSUhEUgAAAJYAAACoCAYAAAF1diepAAAAAXNSR0IArs4c6QAAAARnQU1BAACxjwv8YQUAAAAJcEhZcwAAFxEAABcRAcom8z8AAE5NSURBVHhe7Z0HnJ5FtbgV/aN4AREF7r2i90pRSGUTCDWkSUkvm7LZTSUJCdJBmoIQ0igJNSK9iCBNegdFEIGEhK4gXbkBkkA6CaT+n2cy8/nu7reb3c3uZhP2/H7nm37mzJkzZ8r3vvN+pU6hS5cu0w855JBJnTt3Hn/wwQeffeihh57ds2fPid26dZvctWvXcwhPJH1NzF4xnHnmmV+HQMsYrBD22GOPWfvss0/lBC+++OJvFBYWtojBCmG//fabo3vAAQdUTPC2227bnCbtEYMVQvv27QMxoW3btvkJ2kxks1sMVggHHnjgh9EbIG+Tn3jiia/36dNnncTatWv3Ptx9EPH9jh07vtu6devSBK+44or/169fv9YxWC3IcYdAl4EriRBX6bZp02bFvvvuu0LXMOkrkM8DoUAeIH0tMWSQY5GCq6P3KxB7ikxdYvDfBfIAedem2SP0YnPcVSjt0cYhl5BIpl7777//agntvffe6yYmZwh+p06dOr1+0EEHhUgIBBfhFnXo0GH+T3/604U0uUJiKX8gBic76mabDCczwB5ypYJWpqSIZ20aw2OBTZB6ao6JFt5rr73WyBFxq0m/IxTIA+aL3rWwZs2azaqitPkgJ7MEjoCqKG0+yEcsNzaT/Gx6lOkaez35dQ1jltqaPyezBBKritXIB+U402r07dv3J/rthCj4NWbULes3PQ0/w7o5cKBDrEkMVgvKNZPe/CrymIlKjMOdgPsr5HIG/tNRmbOR33jcM40j7WzcsYR/sdtuu51Rrpm1CvYSvTM+TibnMnGMJTyuR48ek7t3734+OAk9fA9ZvRaLVAxVYRVjeOvRRx/9jaZNm/4jRuUH9SZ6KwSI3a4Lt1u1bNnyzRCZD2xm9FYIVBiICajFls2aNXsjBktDVYghy99GbwDkt3VeGdKEdRJDD/sxlP7pZIL7ATbwffCDmPxvwAiuk1g+wKAeGDxDhw7dBlu0nOGw0g7Atq1k2lphHOyvJH4VrpPJilAgD6Au7YIHqn1/9rOfNQ0BAO5CDzHoN8v2Lvmej95ygGkPluMrtLdw1KhRzR1bGkfbz1BZjcI+qfkZMWLEtlpR/aFAHiDvWmLU2LukpKQVHP2tVatWa+itt+1V3Gdo3pojjjjiO3C4WHMeCuSBXDPpkS5wtnMydhCdGRIARwTN3dK5QIzR5YBh1jF4WLxtrS0ys8RSk1w7yI1xppebMDKAde4Uvf+GymqvDHLNzEJlQq4MGKdr9SwLyk2Xrm6iX+Jyq78s2vzUKTSzvW4pqGkz4axD9P4bUk0Yx46qhYJPaAeoiyls+p577pk4W6tnWagpZ2jEAdH7b1BpkceZKO1Y3EnI5QwRjscRHkdlYTIBT8c/Dj08i7ST4fiPkUTFYHNpymqFnVBR2IIsZtNT5yS/Zs08GJDcYFgvcKWAhqxh3P84RtUYoHEja8UvYt+te2KrDNz4aDsYwjVaxmQBxm5DcnP1I/GttOdNmjR5ISRWF2TMrkiLtfUBJH8HDOU2WwJG9D/sbjS/4ok3H7i0krFevXqtd1eiY0qsFGMJXBVoN1H612NU5YCOBcYoGBaR6wNI5nYktIbhO41ufRF9m4k7A0lOJ/5Z8CUWWvO1IYzO92Kx/OBG0RHFQqB5jKpz0O44QGKwYnCOGzBgwHp3ZVWBQXFgqZUmou5qt5HgomU+o/FzxByGt3bLUYT0ZjOxfEraF04womUIr0aHFpFvMeGF+OeD7qKrba3p4nalGKPiPlYycuTIfew6Elczbyw2jXn1BHTgX/qpzN3hStYnrQzLNMwXUmY7GuRqS8O6SuKmmac64LqnVIOouEiiLqhiVA7IuBJFfVe/ElRS6MJThuNaqZv+BC7GzFcTiSGctqVWMoiwixJjNbc7XDeVSYmLxsPY2+ZjevoMu7O4S5cu/xPDdvPAE088cXunHZlWUrqluqSKgOQ7lmoQre4lA0QuoeIlsUty854zALZmNox8zJw330rVO1uH62nMfJlJ5UyvbA1XEfTu3du5ed3lZGjgwIG7xmCdg+vEdUpaXbF7WGHUm7moEmNOSXZLYWFhbrsinHbaaduxW93u1FNP/c6xxx67DTNEDon7ru4555zzbdNj/LYTJ078rqhfPP7447c17wknnPC9SDYA01+7dQ4azzTUMfq91DmtRE855ZRQ8eGHH/69hEceeeR3YXhrKt4S3FqmzWuag+OYY47ZgT3Zf5K2TUqbOnXqlpFsAKal9us0M2l1AWPBZtUHuEivUleqYwzhUpM4pmNf7Ng+zAytMBt7JNToMrrbYHr2xG1Nnr3MY3xCyhbg7ovd3Bt92te8/fr1+1okHebKdXZl0rGansTVBGjgflUyzEirBxmXgcvBL7BxATG8X2CnPBDIIfG6Ic08dMkXlktpGQx5RPOk/AhhOTSXIMl6U53aBSz6s8nyq2tpyjGsa1h/ypMwG07TkwuDSLbmgLU/zX5mhExEGf3/x/+HxuGfgNJOQrHHgWcb5/GeR3vkPYcu8JhvEnFTcMcxmsc6vdBNTvo1Ov3MAWuu6yC0IAbXC1zHw+A8JYYe1XynxdC+BGWcH4PrBXYzZmAPlkUPYBLs9p1iUvUAUf8WSdUKU0qKrt1bf4sWLe5X52Cs+vMtelNrTKmbzK2BKaFly5Z3uKHBDFSPMZT4xtrSKbsvSSoB0rtPiVHHj2LUuoG+v4GWLIzB9QLNAqOxTQzmAKW/W4lVeVSS+TcM5U9icL0AaawpKioqJakErHbvdFLGJu4coyoGRFtrTEV7VxCD5YAeucsups7dY1R+kCn6/dMYXC/QsiOJl1GJF1k1uO2fQZc9gztNP4u+GRjnMEOQXrHyw9TlMFUrig5Tr2D33mGWCP8hwKD/IfwL/7+o5x2RLvw7edYw6i+NxcoDBa5BF5bEYL0AUlusLsdgeYDr6+F+WQzWCyCxxUhwagyWB0Q9GUWvFeNZVUCnFiOtK0IAz/UwEB4BIGEF9mOlk6f2hZGh301pelRgOXPYcvKvtAwjayVxqywDhkcJGOZfuLEIxKsBlF+CpK4MASuPI2Q+rrton11YA7NhyYHUPic8F3chlYb1EaIOLmUWE7eIMuICwssgvIbuHxeIVwOgt4Rya5mSOK0u9eyHwNroTG1MDOYAm9PEeBmMUTm47LLLvuPQhrkJMarKYOMYfdemgNKYrR+CS0lQEj8zbOVDhw79JrbkKKVD1/3VeObG39O1gSmk+CQ0VtuFSHe1+WoiKepS0a8LAZkiIp1ZrZIoFZ1j2O5jU+l/5scpAdH4AQMG/CLD1BNI238Qg/RooDjetOoAdGRqraRoocTK/RnKcqN/QUGBC7TNhw8ffjI2JHfiwlx2st0eMmaAPHOjvlWbKRq8CAlfEwJ2EYQ+1g+nr9AFr6rs4JpmzZqtYVv/tdGjR59NS3InejA1QYnop+xddOcnhOcpKZl3DW9adQA+PkMXrw4BCVFZUHQUfplErdwWi+5oWWMfzbSzjLzhxI+56hEbo5+4Z6J0cmXQy7GmVQcovyw3+uwSKgzdx6rwM4mqO0rCrg2ZMoAUWpsnMYUuPZ70TenaSIifHTJXA2SKXlorKSUDEbvqw9RaJWW8lVDpJzA+G6M4F0muMs40GWY0forIc/u8hEj3jEC8GkBjlrGFX6tTdMWFMLHaFsqUlenKmK033lEJQ6uVjpWaJ6UbZxgM6bgr6L7tA/FqAPQ+zzGVD+i6i2CmVpYuVQUEsYTuuzEGywMSuIhumxeD9QKRqRtisDyQ4WK6q1ZWnlWFyNT1MVgeUPbLNgBTi1kmr7Xo+YDReBndV4opD9Q8WI0HsdumA9p0rika9oB20qRJ3xHN6+FsOpBN+YqLiz1H/X+RdAAllZuQ8wGKfjWjqJRONW/ePNiuNOwhkrNNmoiUpkkRk9/4bJxoOcxM7ilMgTgXAxWPPs09TJXrvpNOOmkrT4w9zk6nxcyL2xmHlLZO6SnPmDFjwmmx6CmzUvW5GPJ+z3P8SDaATGGeKpXUNbSkXkffOiVFd9Tatr2qQLcqqbXTTD5AUleg6OERgARMKbk1U7TgOdSSm+Y8msIZSx8wpZlPfYReqS0ckvr3eiofUOjXTNKltu2MmP/BjuyDiPemcEE6TxcJ7+VELZLHc/U25DPec/Rwps5w30c0DQZalz2vZ5pZWKlOUcizhHrVKZmiQRV3H/17BUzVygFHVQGmFlSq6OjDyYjS/v85DI4VsTM+ijqerh1PODw9JBI+3XRcH0E9m3xno3fmOx3M5UP6Zyck/Szq+BXpp1DmeNKP04717Nmz8iUPhZ+lkBvO3L8DYvSX+tfBuBjvvw3pH4VK/3Ewn3EovP9ifEF9M2LVNYfevXtvr9LTwg5I8Ke09hARw3uwLmblENIOEk0n3IlGtoehA/G3Swj4055BETDmPYSp7iB0rJNhaTBApHOofhrQDrct6e2QdAdUzXBn8vwgstcwgNHcBKm/hUDCSppeKGWSUpgeKhWf0rKo+UpIg0uVy6ZlaYqpvGUQfphadRGi+f6G0HaJ7G44cCcIsxfZALRkWY8ePfaMSRsUENaNdp4C1RUR5D/Y8qzfv0LrA6w7vgZjUxkObhrn9enTp94ecKgM6MDfqmUM31mjRo1qh/82BSafdOxb8Fz/fE6ZMmULVPx2exD8tGvXrs1i0gYFbN2tDk+EMpcZYj/jWAhsjbm43VGguaBz/4Z9W++n8KoMPs6AUb/BXsNmzK/pSym1DQjrdu0VpmFO2f+qPK9p2bLlA2idB45rCgoKZmLf6r6TFRaadaMGFWEtKPtwyoYChHBHtFflhJWAUfAdtOwehSrC/z9w686mRc36XRJWbTyOWxuQhMUwm5P9azYfeNqM4b/H2RRNdAPxNuv8yv9Wqwm4pUedr4qGc0Hnzp3r7YHXygAh3aqwGF5zK9KssoAN+zYTwUOUXePqm/DfaVftLTnYifuk0+XaLHdnVFJ/BrMSoJG3OLTowI+ru5xR05gcbncSiNr55qBBg6r+X3xF4DoLQf1aY0mvfAJjDUJYNPA2/6bA0M8dMGBAmA3tWHAzkSXPV0PGCIbLxvm/HDuC8B6UEwHCfxt6NX/E0mEIsSschoz1ed1q+CZqbQMafovrLIeU2qE90i3rd5Vv2GWGaJxuNo8aGpchYffgCWOspnoQbdYVSh5CC+vz+b7KQC2h477F8PkPJqCArrPQ/K1E/SlcUlKS86e8CS0vHWb5rijEEpYcCmvt38zVBVR6cwR1o5pFbyxjDVOj198bOjCjuuFfqmYhxItidPWAcR3WWY5r1PQzemHfmLRJAe3ySeglcRiW1yzVk0zdUc/h3bt3H8YibhTrqNG9evU6HDyCuKMOO+ywozF6zzquMfSfo7bnobKjBw4cOJr8h1N+dN++fY9A4w6HzijKjWKoDiN+sK7h4uLiMbhjCB+OMT6c8j8jfCxh8SjrMg3XtJEi66AR/fv3L6L+rSK7dQpo04GMnMXaLszO2n9RE6Atngn5xEcwbA4z/VEowTU+G2ceXWaQMHtoPA1rZA2ndNHZU0TQwbVMomXYvGKqwzL6Ez2ZlmazZs1W22mR7ToDz8nULNsEz6WFRUShQ0vmYGru4MGD+6Ahu4j08O6ucInbXT/pB4O3Q2y1DbAcWvUx47wAdye0ZWcM6M5ox674d6fRe9FTkxHKR0kICkRGUPHjoPlj34JIrgidXUUEs8uQIUMOpLxbkyA4ylT7z//qgprFzOhTNnZs6fNkEvvZaHsXAcxiGIVtjG+Mo/6+q9SVPA7RDg8++OA3THPNhVBeddqlYa8bNh4t/QHDt5CG9qQTuk6YMGGHlHbUUUfthgbPymhPb+NdEzHcWjGcD6F8L8p3Z+h2Rtg9hw8ffiQ8+T540tpqP75RXaBdByCoRVFYpf9Opbd6m2ADaMxsGAxbBhd4TJ/LHSoKU0TiucKU6+cQYZ3zbvo3Eo06QcNoGemZjgDuCQUAhDKJvVnoGDogCMu3QBDGkwrEeOhaJpSXrzRUFRb+Otcs2tOWtiZhldYsIvonYSEMD9DCawGuRwifgAYcS+Hj6NXhaNl2oRBAgx5UgLhv0pivG4dWniIth6iNZluk+0QoADDcTlcbFYydZJyCJn9H6hlCnUPBwxiOw+HLx6sWJcFHzar2c13VhTQMrY/RUfoPMBKLSAwMoRUfHHfccemFpc2Ygf7bf2jTP7U08PtoxykI4VMFRVk16x2EtLkFyD9eYWmbNOgKhQZOC9QAZt2TLOeKmzx9YvRXnY2Liop2gPb2DOHgMnM2h8ZH0hPVLsrUuWZhBtSs/DYLhrqlBuLOwqgGYcF0U4bRKiWsINUICod8NtgyUbPe1e5YBq0MT2uZR0E5JCmTewIUAVxkumWhOcI4/2In/KxDVo204yIvQZv0W3+kWe1nlqoLtKcD9SyL5uSqGL0W0JbuMmbP0eP/h80Kh2Iw+AP2gD5GFoSioBSYw0tBGCdB0l9Bs4IRZ5h+n5mxE7ifRjvFCxpwBBHe5LA8jS82np7cBv8jDjfTFIzp1pMVljwyPKv91Fl1AbvbgXp9Eq780gEme8qcPQtTC0aMGFFso2lof5j/PDEq07F3U2NDGRr1r2HDhu1HmSYuL5zyfVvzmGOO2RUtHUJPXQ2N981rOcLBZRY9h3LNx4wZ05Hh/Lb1JEx16Xc425GWoTPrfBgqLOpKwir9/zi9fQAz1PLU42Iabvau8dFeBH9ykwD12yD9llUT1RLjRGnY6NgZIS3Fma72WM46EkorofnFFi1a+DbW6Mh2nQGd7WSzTHMAf+WfcHDfB5PNYHpvGNtfpLf3Z2Zqh+AOoVB7hksv/PfaGAS1DC06Ai1pA2F7wmck9yVtD2cTBNGKvPsguP2Id2HakXA77QGL3A76jQPagh2crok7wDKE21DvXqL0oSmdpmh6qZdG6wrkjzqXqgTwVfFDDpVBOvxTC7BdCxx2MWmTAjfSCCpsd+jQih88rAzWrFmzGQQucPigop+4JYlJmxRkhYWm10xYUbMuUViuszTkMWmTgjLCqvjp0crAtRS2IwxDNYth2CDO4GsbXJQy6SzWwGOzaiYs73zBWF+pZmGz5jMM8/7JihD9m/968r6EoZyBO5MyMxDyNHB6dKcRP4346WUw5KfcdHAa+Bxh321+zrLmsVz0zyB9JpPRCyL+FyybaER6ufosw+TxDBrzIv7LWd6Uuv4ggQcGpC9Vs2hHxY/WVQYeK8PQ1TCiZjkM8/5979bFfDJFD03DfQ7UfZ7lw0uo+IvgCzAkvkiDXgJfNp78080P/Wn4/4r7bKa8cR4+zojlvewxVx58BfQdkFfIOyPml97zEWcSnilNhHYNi+b/iiyXAjSrPXSDsDDwNZsNFRY9eC2E1Kx5FQlrYwc1C4Gvn7Aw8N47dm3UrPn0QIP4+762IWmWi2gMfM2FhWZdxxBwTziP/V9ezUIDN2MP5zn7jeANqPtv+/fvfz3ubYRvBbPu7cTfIRrG3t0EWu53lLlRf8SbWJT+TsRvvjsi3kncXRHvjngX9G5JZeAzoGHcO4uKiq5iVPQnLZyUlAVnQ4S1hCFb80Wp/xtC4FKHIXu0uTQo7zoL1d0DFf4Hqux2xVf5VmPDxFUI2rfwKkTKmH8VeVdSTw6JD4jfPMmfixfL0jJvzJ+NC9sx+HsD/vP+78nOIZyUqlkIq+IHuisDhUXFl1mh66yKKtvYQWGhFAsVVo1tlsKid8KDIQ5D1HqT3O5gQvZHWAuizarZ0oHtztfZUIdHjlq2bLmouLh4k/xHGpvVCUGFRSmb6pr9fQ981b+qsDuvK3W0LHdYJxoWU9jhmuIV8LqQySO42fIJU5yYLWM41ZuNz1dOLEszlbVu0XZp02LeNxBc3oVrtYEVcPcBAwYMYziW+I8xLhNMv/64A0T8A40HjDO9pCJklhrEDFaCHbRsotNPpI4cLf3EFZtfl3jdLC0PLk3vL+LPQj/qCDQjDpCmSFuKsE+DBg8ePGDo0KGdfG4rNrMR6g1cRzFjNEFdfbWkE2rsKyKHorr+W30wwyD4jRdjHvdb7Ygv9zqKB4uih4CWJ54Z+5DwCoth0sIrKtIEO0qDcgewN/1pkyZNDrA+0vdGy/KumzYYwNC32Vyey9ieo71KYz9hCrugE5NNM15MZRKaps1I5ROmOPOUTTdsPDNV+l/S65GXItSzIpsNA2BsYqtWrQKjCsN/e5w1RP2iRjLFlU3Lov8Mif6HqJvNm9L0GyfNRDfF+c+2gjJeAUJnOVrWMATmn6Boxv+pHaj9QjacbhvGMyQnMGwmifqZMcNNbLrGIVg/tBC+3iPiH0t6+JIPQynd0DYeeufgTmFvdh7+c4mfgutHGc5nVppIWHcy6eOg7S1uY5kQbkiah2a5pHElj6VY+z/mBgP/T4QZb9h1el17o8gGBjruhwhqhVquttGJQdMYnhNjlg0DTMX7wVy4ogPGzi/7xO+GALR2V/Zx4fpktM2v7YS/sEQ69cyYrf5hyJAhLbAX3gqkPTmvIQgLofwvvPgGqlekXoENO0getanYVu+crvM/ZfOCD2qg7gtVeezCJRvcLgAIpwWavtzn4DEN4ZkKBOf1PQsdAfLatGnT013uhAL1Bf4TDyO+T6ywLmTm2eDCYtXdjCHopVxeBpj7ygzhrghskfZVgaF9p8ek+oFhw4YxAtsu0z6AF6cn+jYkMFO2oAO9zUxhlZp0WFr0ZDnhdQxql9+4OTUm1T0wG3rOE4SF0BrEMGTotUTLg2ahZeUO6tCu7p6Q9OrVa03z5s0dFWpY3dvahigsT2UZat6vp2blPdVEQD1c8rgO04SgcXWvYQ5DBPW5woLBSxuCsBBQAR3o9wkrPQJG+3qz9lqKnQ1P/yC0ul2HlRHW1IYgLATUCkEEm5VvGGZBDUMDw8N5uH4hou4ejIvCCgvAhiIslg6t1KzKhmEW0MDeLVq0WKCGuSclPK5O2jFo0CD42s/Lzp2OG4SwNPDwsgLtymnWuhbL8N9TDXMTngQWk2oP2EjvieouVVhU1iCWDghpd3ha6QmFz1fE6HXOduTvjaA+d1lheYZo7Q5JhFUA0c9c6OGei2bV76o4DzCcmqV1FmuudQ7DLNDhvZgZP3VyoD0+lf2rWmuTwlJ9tVn0zHkNQVjsAXdH08PSgWFV7X9iaEc32hNumVQ7WV7UzkpfYdEL4eM29MT5DUFYGPWd4cfrnFw6/DpGVwso2wtBLXbE0D5v0Fz/A0SE5dZiicYUYTUIzUIjdsb2hCtCGYbhkUYNfL9+/b4m5uMxX1zXrl39PtRKN99omm+8rd9rL8XFxXtkbJZHNBtcWHTcrvLjMGIIeTTzBNqWrm1/CXwBnMFM+Tw4nUnAr7ZNJ/054sWXOnfuPLN3795v4PosRjjfV/i441jIlrpOssowePDgAjemahbulIYgLLRpF82CSwAbqUtHBtSOifptvGg4GvSca5xphqWl7YonrvMY2v8bq6oeqFkQXqawcBuEsA4//PBvoyle+eJH4N9Bw95DaN6378fgg0tcQCYAXe/h1/8+M+m7hN8hz/vEhbv5Kfsq2rZc4TE7zq2xsIYOHeqjRJ/H/dUFDUFYgq/gec1AuqqgR7yiICHDMndtQbqqwHwJUzndbt26fQv79aDahdb53GzNPsoyZMiQNgjpC4VFD1zaEBaldQEI7m5HD239FH/NrlphGO7POP5CQgjr6vT26qYGDL0H/W+UNn7cJX58sNowcODAfd0bMs49Vr6SKXiD7w3rArBZ9zorgl5OVDObVVhY2BZph8M/CF7T4J4tqCVAQPdFzZpf42GIzdoZozfP6RYNuzBGb3KATQ6aVaGwsPotwSE9e/YcxtplBJhu7RjNLHLkgAEDjkBYk1kyfMFU6xNxTzN7eMPHGNIOZ4Yx/xhW+WMoM9Kyffr0GYF/CDOMN4boH206/sPRSnEM9R1N/HFo7THWY5plQW8bGaEfXoYBe0VW6xwUlrMha67ywoJhv7j6L4y3H+UTvY43fDOGGcGDNY9tdX3iOPy1RNipdWVBQUH6fox/oXtUIq5gcRjiyON/el7LG74pQ3wu3bA0QE8t/eBuoBXzSi/QoJelMZ8O6RdZrlNgDXafi1vauoCVfumlA4J6zEd31BhnOjGqYVjR6jcOxkOeFO/hGZIPYTHlM4+TgELVNS/bjPD4IpWH9GzeVGeiK6awdRqOQ/81ZuBvRbbrDODpPjpUHsoLC8aft2EyZYMQwme4nxJeSIFl+D+HgCv38MeA+RSCDbDR+skzj/TZNO5T3HmEl9LYcM4kbRuuK339IuVcs/kBocXQWQiGTzuL1DEPXESe8DpyFPBcaNT55T3UeZ98w2N5YcHUCzZEhhiSN/Tt2/cn4C7YjN2wN7thT5pil3Zno9mcxp0EkXdtrPkVXP/+/S9Ac8y/E0NlZ/drlsVtSr4iZpc/WblCNb910fC/Y492J9+u2KqfYC93hX6pe2hI/zEr7nMj4/b0HOrfJrJdZwCPwWZR3yLbE6PXAgwEYak1LAnOi9EVAuut3WD+dXtc7aJxR8SkUuARia6LVwR1PLZIbQvaiH96yLQOGDFixBHyZTlwLnV9JybVGaAEd1mnwrLjYvTasx+FZQO0J8xyk2NSWITS873o+a5oR09mv9zMgOaNhnkN82rig7A8J6In2vkkMAayx6hRo/aG/tebNGkS1mPQP1/hRu2aYd3GMxtuDx4EWk8PNLmbdTID9sR/ywYQ1p3R3CwuJSyBSN/NC/aEYZj76Bxadp2No3D4lBb+54n7tmknnXTSfyPgd9RIGvlz4xDSFgjkVeOkhfbMocwZxx9//BamI4ACaIWH8Vn0vZCEhYCHwpwX1fsOjt/pEf2EV/jIkB2pC86BvzofhvB+tzzCz2LNS4xeCzDhi4thGJIYhEVD/h/j9hYLaWtM14/xD6+gmE7YN0L9eOOxxrlrR1hvJsErNNKXYvcOMH3kyJE/Iu1d0xHadGiEUwuEXRJ7MtSlhjvLWh/5wswYhVYvNos6c8OwnM1KwrJxGNnwzTSBzH7QNAyB2Hi/zRju7vRD3ZR703QM8QnGOa0j7DfMLz0bTZ5VGOuDTD/iiCN+gBD+bhpLldznDhj6A6HjG1uuufwwnIJaLT/mjYKy/jnkqfNhSFvvySsshwKRM02MwsptY9CsQ2DyRNKPhcnjGb9tY5JXO3Ujzv8QV6NZRxp34okneuXlezbQdZUujV6BZnU2ffDgwT+Ekb9HLZqRzsLRrB2hNZhhN9ghiXBHwMcQ4u5V03DTUPR6hHoRlh2Gu6jUMPRNL5h5wUSZgtlzjc93qJ/Azx3RiMecXkUad5zxCovGvJvVCN2kWSeffPKOlHvV1TGuw7DSP0MR8unSdyhGmn7Ysc6HIcpxl3yDpTUrCSujWZNiktP2tt6a5t1ZIgZ8O2Yrv/T+R59Bh1AQCFoWbJb5McAa9RCv3VEjyNfddGzWjpR/1XSEMDMJy9OL4cOHb4eGhbuzRP0I/gLLJ8GDcxm+YYKpS0CbgoFHaAvzzYa+FR96EPuRu8SUQhMx6G+Ar9LwV9CG2RBZrWYoKAnC/GoWpUeb309K0fDZ2jEqChOGw4gO6Gb6UUcd9SPCYQZFQ15Ae8OSAgEX0mEfU98n8OBNbH72051A7jKh6M6l3mp/m7S6QHvvV6PhcSF8lDbwMOV1AKGB9HxOsxDiDTZYZlPvolVBA1OP07DVSD9oFkZ/S7QsaJa0TMc/2x1ATN8F+rOMh+5rCDZoCVo03L0pzIUOsKx1Zv2mUf8cOqLOhcXE9LB1004fgCu3kc4Ji97N/blIg661EJLOCUitSb2dBMewCZqFjfkWwnuJNdQK0FuCfBvjxLSSR4PaEw4PceC+iGaF19RIP8zDNjVbunaKdHUNi9apsJhM6nxvSOc/4uhBHuX3hvSaF0wEhlC7nLBYef/aBhifBKZAHVo2QEEi0JUIeJT5nRTQor0VCq43s+0YCAHeNoJwf5+0hXIvpsUqQ7xvEpJp1me9hlOc/FFvvQiL9jwcTUl5YcHINBshkzQo91YCRnyq8TIuwzJunjgkQhzDZwUNGBKL5IW4N/QWyRWWU+j03PMxOdgsNGu1aUmTkvBS/qj5fkmgPoT1iO2mbg18uWEYtjsizNxVXFy8EzPb7gjuvqRN2i41Kg2P1DDiV2OnJg8dOnQ33N09pWDW/Ak0/mfMmDFtEcRZ9M7jCkr6Dl3LoqnvlpSUdGKhuhN70AuywhGtMyHlQxx1za0Pm8UkEmwWdZa3WUQ8L1MKAy1a3bJly4/Qqrk0Lty3nJhXq0TzGU7x5FmKZszGFn2MxnxcUFAwh/Ac6IR788RIOwhYY467GlqLyTObYRgEKb2yKH07Kgr6A6//jGzXGSCsR2mDI2iRx04xei3QyAc1aA4vx6q9r187lRhOtisKJzQg+U3LDlUFI0pHrdCfhpL5pG28+U1LQ9140fgsyoeTAv6X6uOklM57VF5pmx86Lb10YG3VAUG8So975JIMd27qNs6wgtBvnI1PaENiHvdzYW+n9phmJyTBmifRV8hxxgn5jCuDgY40pQV/s8jbe12r/toAhRWVp7xmCQjsP2nA3gjECwnboxV+h/JAjJ2XGXpBdIeioqIjaazHzGrEQ0i9HRrSnkbsazm0Y2/S9qTc/mhDKxaj+5Pm5Yj7Q6MTcW0p00m6hqFxINiRuveTDrivNHBzlyOKCNPvXdbb5/jg7yFHEbx4+FdeWFUBhsBu9PaiOFTOj9GbHNAx96vVtPEzOrJmHzDyfUOG3BKHEJrUYJ6iqW3ICovVQc2u6mNJ0ISxvFjbxdCYXNnJxMYMGWEtYXtWM2H5RwXC8m8qDfW59WFsNwTUirDULIZheOERYg3iAdy6gIywFjNJ1eyrTsyGTRGWf4i6XPgyaFbNheUzpax7widWQN++31Q1614X53HpULNbfhUWtmqRi0iG4qYsrLtdaKtZNZ4N+/fv3wphhUswGIoXVPZMKfZsG3DbE0444XuiH+FPmI6pY56AhmP6dz3j15/SzjnnHD/yH+ilOP3mFSdOnBgwhRNKJx96VB7ZzAsY9fvULIS1qHtNr0QuKSnZi7EcXttAWBW+9stCricq/CyLV2+y9eJVMd1EW+4GXPKk22+93TbcYGsc6O234QZc88f0dJttuik3d/utaJwojUQzU588eRz1LMOrR2S3HLiC12aRt/wRTVUBYe2DxH3SpVJhNW3a9Hr3gOajwtxmXITpsCHPuqaLNDq3kdYVTS9LQywbTuXKYqItSkt0r8k269HIbjlgGD6oZkGz5tudoUOHBmHJGA29uCJhUVkv7NrT5PFRJo+sw7W9TAr+i+R1wemq4BdoRLoq+GXyeZ2vVwWb91n8f6W+54yLNJ4j37RYXm3NXjfsVcHhumDSX6S8dWevC56B36uCjfsL+8/w/Yx8oLCiZq2fsCCyTmEJ/odI+tZ+kdJ/fbRJ2grC27HH/F4W/RtM9Kwq5T/33HO3ovyW0kjlk2tey0lrzJgx21PX9sccc8wO/ksuaiMpF+xgQm2Vdsx46cpjRUsfhYWw1fTyRzRVhcGDB++LsMLekN65iEo3yUe7MfAPKaz10iyFxbAIwlqXZm3MkDHw6ycsJB4MPAJrEPc61AUkA08710tYBzgMFRaadRl2Y5N8HSVpFjar5kuHYcOG7ed5FoKqdBgy5pv26tVrap8+fbyp2xu3ry8sLLyJ8O34S93aTXq4sVsk7WbwRvKGW7ZZBAe/LvE36YI3Exdu7O7Xr98fcNOt3enG7rtNh/bN+MMt39KwPHgr+1vrHI+/wsUmmnV/NPA11ywf3GeNsigKy410ue0OAvQj1neoxvaO2wYr1i9m/WWR6T2XbnnR8omWaHrCFFcWU7lsWLQME9Ma1oE+tHJTZLkcIKy7zY+pqfls6Elpq1atwnaHis/JN/V6cyzpkxBmeOMVIxmuN8fvn6jhynH8lSL5wzXm0AhXlyfXsmDy+4dt8ItlaRAX6srWhz+89ECnLEf7cw/tlQUWrHcqZMrUXFi+nKlmUanCqnAj7RoLZlrRe3v7x0fEPVkIFhC3B9uhvEiPtgbb+IeFfstIR1c0LdGhEQW6onkSxnj/8NiH8L66loN+4AVBFTAM92J4Vfj/Y60ICwPvO9Lplf7Jm+qpQ8eOHf+gsNZ36RCEhYqrypvsHxZJWGjWes2GrZwNIbJJC4thePt6Cwub1RphfaZmVWazNnZIwlqvYegL5Uy9YZ3F1FrjG/gbOjAMw1thCG1+9+7da/Ym68CBA79XUFDwocJiplmukUfLzgDPwuiPQ23Pxj8W/9n4J9Iz48EJ+o2Pecsh9E4XyXcmnTEOPJvw2OQSP076DP3xMc4yZ+D/VR56p5P3THmIGMoSP1Za0DgLvs/Etc5TcU+BzkksiX7evHnzk8k3gbhF1Kmw3mI0/WdsftWBlXA4QoaAFeYO03RFiSc0DCO5NNc2VUEP/1IZMdHXTXR1U/4Uzsal+CxvWTRe3lJ6Kk+7cmloVlgg4x6b2l0j8CFb1i2/YRjOoTK1S/S6Xq+1DEhaKYxxvs0akHBeTHkTGk5xMJ9D64z5K8JcubIYy+f4TXkZdr47tBwN+5y0D+m4SbV2bwUz467FxcWDWeANQfoD2WuFb09EN3xzQvSbE7h+S8JvS2S/NVEK2b8NYj8pHbL382tL6RsWpWixNywyr2WIGyTqjxi+XwGaJ5VPEL5bAb/BBUwP36+INAdizEtGjhzZu6SkZJP8FGEjNMLah5Z9Rrdz586j2L5dhVl4BHv8FKbvL5iLJ0HdvxjOoOkJDT8tprx58CnwSey0+GeRyS5gCovQ+LP5ROx7DuEni3/WzdYrku8v8C6GfIZj/NPGE2e+Z6At/lWMZUM7rBMenmL+eBLz/xRm9KmmTZs+xeboL9B4zrLwexd4slvpM+OLKI1QBlAoL1ny3YorEeoHCD6cLPnvnS7x4ZRJNx+alk3XT2eEsroJK6KRyleGWTpZelXJl8Wy+fPxkS8OZcotfGyXr5GB3mzxMgr4K1a1TVGwTXK/VCPwJBCh9GfF9xcE5jUhQXCMVF8/W47l+hihvgP64fu3Uby3Efg74Lsigg2IP6SR562IIX/yk2ae98grhvy4b5XBNyO+RXouXn9ZtC6sh1e1vQd6bds/I75Pfe9F/GfCmMc03XdB22Qew/+Ked7Flbb4LnJ4h8Xdm1i5N7HiH/30pz8NV2K6z3JVrIzgJQxA0BfPf0HcJvmNxGrBmjVrvjp8+PCdWCWf58XPCgzhuKVYheCe6dat2wksalt7cxLuTiJT5c4VYZ8+fXZKmA3r90mXLGbzJmQB+iMxX1qqP4vyNWjQoF3YD+/KWvjHuqJx+eITUscuxO+sC+1cnmw7TReh8yOxR48eXVGsR1Ayj79zFkw/8gpyY5fhbS1/Q9nGMyCbRzF/+cB/yYqKigoQzmWMxMUILeyTUbBFhC/0faiY9UsPKMpO4G9RoC+0UChRqWlSualkWjS2rquZJt8Gf4WS/ZBdW+1sXzcWcNHJSN2XEeedI+EbUAoHxZpP+Hwfa9WqxexfamCp4O3QN3oG4nJBZUI+81Cavw4ePPg6lhN3oVDhzXPl6FRpHmT5FjgBS/blsWAezjsFIITzGVnzFIjCQDjzGYkXMmU13VQvOa0uoFg/QSY3I6flWimUyHXVByjUZO+j2XHHHbcgvguK51m3L56HKVJ0yiT8evPmzc/6CRBJbrrg8w6MNtrd7qaCgoLPfSsUobh49/a2C9lKN/vSmfEKAOvUnDXWLcglfBwuyuljj2VYf+0ds/lVhK3BXijdPaBLijALqIzIdxXTo9fW+N9DzV5y2BhAxTrssMM6YJluQkBLtViONATjNX4XFRYWtnAdFrN/qcFBhtW6HQVZhVUKisKA/JSd8+/YnOwbs+UAuW2GVevGpuieZs2ahWd0yBvesEYpV2G9XiPtNOjsvMkN3osvvvgb7AoPoLE3MLKWOQ1GxZqPewkK16JxKlwLBx98cEuU6zbkEj5ZEi3RHGR3TdeuXdvEbOUA5dsSy+W3Xe7CDU+fqFz+oUd4ZZMmTWZiyU5mYG8669mkWAjM3U4pxcJ/SaPF+jd4wq7FQi7hYgutFrKac+ihh17Lzjo3FVYEyHRrFKgQK3Uni3/lGxb4rr+YGr8g7Y2WLVtOJL1mzyA0JEiKxWi8ESF97logKtYCTPelvXv3btmoWGtBxUI+t2uxkmLhziH+2uwaa12AEm2BbHtR1stMlkgnsxtfDb6B/H0WxZsENk4LpmINGzasbaNirRt8/JUp7A7k4iWauamQXWG1FCsBlsoHxXsja2879qrqYL1E12/Ev009Y50iY5GNB5JiMep+R8PCp0EyijW1Z8+e/sHaqFgA01YrpsI7mMLC3ebIKFgsp0KWDNVWrATQCbtIlMuXl8N9wyoW8g9/rbEBeJ10n1BrFos0fGhUrKqDioU1uQP5BMUSUbJgsXxoP2arMaBMW6FI3ZkefeE7nINpvVQw4lYT9wb1jaePGv5Bq5cguvBkjr8WQfl1gjDX05CFjJyp7HYap8IIWKumdP6tdH7uVjrkFdZY2V0h8lqvJxx8dMldJOgnvZbYJ/7ZrRVjZxkUDGU70ylyfeuqM/Dm4ZKSEk385QjMz2CkvyHmEZ7cq1ev3RuPG9YCndkEVLFWIZ9wSR2dPRdrdX3//v33idlqDQYNGvQfDO4B7BLvR6Hmu4NMCuapP/X74YjTWffV7IKUugStUfwT2meZw3sYmmBGyyeEz/G/wgY7KuoZGHTNkI/HDb4MmNZBHzMVXskaa8+YrdYBxfk2itQVBbuNfllg/3gOpqI5RRYUFLwOH2djHBrOX0VJsWDsckbHZ06DCk3FIny+Tzdsqi/7VBe0DHReWIsy6JSRa1H/0rmSXWFWserkiADF/iZTcFfqvBNc4HRsX4nwtIop8zWU/Begn+DbsMcUKhYmtyUK5WMzYT6Pa6ycYjVarLXg27Eo0U10ot9SCx1KeBYyuhSLFa6Dry+g7kOZkm9RsbGc4bsh8qTCE+8DjGNZ9+26wU7yXT+xPgiKBUNL0horKtZ5jMSfNFqstYBsdqEDwyuNdmBUrKWse6YjpzORY2GfPn2KwWGEh6NwAfEfptu9e3fj/briYJHwINZng4krYS07kDzFhk0zzrDxhIvxm3+YtFHiQSNGjOg3fPjwXxKezuYhfHNcg2D/pVkHQ/EWOB4r2zI2of7AxbtvUDMKr0CZlibFYk6fR3gyDWqcCiM4FdJpnryH9ZWyolPDWgdFW87UuIwOXQ6Gr0pm0D+twxchYzh8BZJODwgtL2/4Arp+BTuEwfDeHmWM84sg5pWO32L3goeV1K+72vUW1jTwQ5l0cBtO8/WDz0P/KPjaLjal7iEpFhXnFEumUKz5hKc0Kta/YcCAAT/AgkzGAsxCiVayUwu7My2Yg1EroSUzrOJVhCqmaH7L6beMqCJk82XTUxmVJ1sHvLiAD8pL2I+15awW8eafh1X9DRav/v6DVLGKi4v3QKE8bsg+QbqA8BRMbaNiRfDRFpWL6epQFshHsoY5DUU7FddXwE7CcpwC/gL8JVbsl0yTp4uGk18k7xkRQxhapzP1nc4gzuVBEX5J+mmUPRVapxB3EvlOxjKdKhLn0xAnwcsplDuJ/MeR9yiU53LCb6H8KzwSUfFR1rnknRoX9fUDHpB6PwaMXAUD4QPmWi1Gnve/Xth4jrVxgcceKPptKFJ4/otZR+s2H2NxJXE1u+aiJsCOb3OmQj+o4Mey/H5vsFgoll9gvZxR2viXzkYEWDM/tvEAfbjUKVHFwkDMxZr591z9WSwVa9CgQfthWn+rYjkVimj55yjW1Y6ATfVywE0R6K/2nTt3vh9lWhKtles0z9ouYjb6n5it7kHFGjhwoE+Q3ogiBYulYsHMUhi52v/AGhVr4wHWXH7m514W+ovdSIj456FYl7Nmq7/Fu9NcUVGR3yW6AgYWqeEyw3prMcxc2bdv3zauw8y7wQ7bGqHKkBQLw7DYHab9Sb/OJ+6KKiuWuxRfj/fPSvxbZpFdxlZl8bDDDgtYUlKytah/0qRJ32Hxvh+W6gp2EeEjM3GN5X9Sv0Gx9kX5tkllE+ajm9B7lLLxiSf5TGg4m8+7vhNPFWHim7LfTv6E+fJLO9UtZsPeVbEprh2ZZQ5k5vELHsFiqVz053yNRKWKhTA2Y7H9XTTT173Pg9DdKIW3qYQbVkTCz4DPkTaNtZMns9NE8k8n/DzxL4jEPc98/CL4DuGFnomgTOHsxCmR9AXU8xZbWb+X4PcRLDsdOtNgdBpT5jTD0hGJM/054v12Qvgeg2HyP0NauPkFGuEWGfkk7Rn4eS7yGMqTR5Su8ZaVd9NmEv8S8a8Q/yrhV0h7GfdF4l6I7bK9oc5UnvRnY/3PgoEX4pXTY9C7jMUuetav+le3NVBg8BxIO+9lvZxTLOTtkxGVKxZrnmYI5wKU4P2ojQHdWpZFFcQ0BBhQv4ojqjiiypTR7FDGOMPuKvSbj44qVV76yTU+lc3Wa7kUl+J1pS1deZKu8dYlPculPKJxiV4WE/+JZuIr8ZTKmEfXOFG/abbZA86WLVv6/uS1WL22acrfmKFbt27tkOl9LNyXeIYV5exHfCs/bkDzDkIwzygYV/1JYBJIQtW1o9J6STQs2lnGpx2D+Y1T2HZyEj7aHTo+dbD0zSMmGqlu6dsID+TMJ6b6Eg/yJN3Uybq0JRe2bhoe6rSORCPbLv2JnnVl2yUmXrOY5UHXctI75JBDQp2R54/xn4Vb5x8hrmtAfkGxkGu4XdU24y7QYlWqWBToTUY/vhI6wBEZR/4XCOsdNPax7t27/w68Cv8VWLirmOquB38H3ozpv4W4W3v27Pl70cM0LOBddMATjOA3ELTvE4avQSerYF12kkpA+eXQfh1at6N8VxL2KdOpTJmXQedyGnAFfFxJ3HXUfzN4K1PpHyjvRxL8GMws6IXHbsXUDt3kT/HUvYg6plPXrdC/HrwWWtcTd4Mu9V0H6gYk7jqR+s13NXiVaPt79ep1Z+/evV8gn+3L1aPg8fut4rG0pc4/2FzXQBvaoQ++4h+OGxyMyNGv/19VqWIhgL5k9CtAYTQqoDiSP0TwE0499dQan66OHj36f+mAg6ljAnRfga5/jAbl0rUeOuod8oyJRaoFrA+/xQ60hfdm0sFTUB6/Eh4eLhST9VKJo1Xyq0adYvH1gmeeeWYLNjqHI9wZSW5iVLK5CH4Cddf5x63rGmjHgbTnHuQWdvixrYvp02sxCPm/YeF2nwz96OgXFEjqdDsE/wco1sSRI0eWey6IxWm1/pLxv8Hi4uLmjna0Pzyx6FTHCFhN3N/79+8/uqb/H6admJsQrNkPoXccDZ+OEoX7EFQs2xPb5BfXK/xwWnWA+n44atSoE6nPT2rlLKSDBTcoFlZ2o1csLNYB9NmdyG6R7XSQIsNFDOTrsNz5XyNTsZhq+pIxWCxRxXKtArE5KNZvsAalnr32QjHizkJoT1PpDIg/Bz6LgrqLmskIvoe0E1GWZnZ2LBbqGjRoUEfy3kzH5955I+/bhYWFx2QPTaH7DeJ7MwXdSMc9j/9lXK2RX+x7Ggvn61GH4f7YctKORe3wb9om2vJX6lhtZyuMuB56gfjCrBLHY4QO1DUZfBz/n+HRHWbYqcLLtNi+vyDMpxmlzyGDZ/v06fMyYR+KCzfy0aacYuGfAw/jWBpsE6vZaIF2tEUXXNpkLdYS4l0qVPyJRzL0JqNrldy6x05HQB8j5MuOPfbY3GtIdggK04oKfsfuZ4W7ICuzDB0RhOo8jDXy+aDLiCt15E/5r9NBfUl7KS2U6Zx/0QEnen4Ws4WH/um4Eyn/po9paN3sOHgNvFH3mubNm6soL6MMp3lbXiwagPK7QPNSynyUNhXypmLCa5+sIpJ3exRnJPxM99FgeRLNb7tUFsPWK6Z0/fKU0EGiu6kpFvJtS9vuRnbh/UTbTvsWMehcd1asWHR0KcVKwkHQsyh4ASO6IGZVMXw6dB/y/J5ODY/Tml+hKmg7wc6wctJupnzrbCeedNJJWxE3hHyvmMd6qP89LM+xaUoTPGzs27fvseT9Ozz5VaFQR+psFcywyoxF8frJg2PRAJT3xrszGGmvy2NSCmg5FapYOYvlhxWxQoNIfzoKLdSR5KBMbFeK158EnNorJsUyP+XmEB5P+kY/FapYWizaFD7lbPtor1OhF5fkX3/b6XRsPzLmpkKFZGEU6/+cHlhj7RGzByDuf0mbjCV4DwF/SN5/0invI8QPEOwsBPoSHX8NHd4F2v8RiwUYMWKE13JPop6PksUizz+xjMdnp8JosU6mrnftPPlKHasy2Ykoth28gpHzp7KKNXjw4B8yXZ9B3qBY5o31abFKrbE8rceydIL+FdTzEvW9giD98O1L1POaykl7Xsf9G/gqcW+S91PyhTdrEsqbfFof7lzybRKLd/rnQNpyL/2ctViLXWNVtnjfjAz9EYDfbg3CV0hxdM9CI6cg+KxifVVlPP7447ewQ44++uhviE5jrouwEptnLU8WnHKwQONgclakbz2rYfwNFONnTEM5xfJzYijHSSjhO/C12rwoUHhFifKhcSoLHbgKmk9RvnMsGoDBsCO8nEre12yTHW45FG0GNPqsz/NgDIKtoHUWwlV5gkKJKn6SHf5PSNskFu8Mqra0725kHhTLviC8kP64Gnnm/1SaT3si6IEI5IWkjQpJ4RD+AGWZiOI0idnDzit6qwweV2A9hiDoP2Dl5liPHWIn2OHU/x6KcbyKGYt8xf/5hg8ffgYj4v9SYywjf1oslCn4TaOBfy1rsVD877Pu+jlK+4qK5drJtRZ0/CunW8xWI1ApsaY+iflhsoRZpYqDZi5tG8dacJNYYyGzu9CLcJOgbaaNYSpc53EDQplpRyXFUkj4P6SzJ9PBpd7IIG5rFKWrFoHdkfhz8ASxqKjoOOJPYTd5LsK+EibuRsB/g6EldoBCZzoJ9F2Ui9T/vuWyUyFT5raE/dana5XAl40Sk19arrVo+HR3kLFogGOOOeaHAwcOPAOBvJEGjHXStpnU1zdrsVRorFATpsNhrPXOoW0XIbApWmvacSn0f40iX4x7IXkuIN2D0hnUv6wsPyqY8kP552qdlVWsZqMFZBOebkCOSxygGgPa6AGpcqh48U6hHgjkOQUkRsGIHyHcC3wxImYNgHC90+l6FGUZu7XVItYgvO2BIq3CH95Jk4ZKoYZrLfTTOWE6swOikq1iunsDmj9DIXOdjWXccvTo0WdjGeZISxqW11KhGIFH40EfJHzAURWLBvBudTYZ51HX++ZTqeJgeZmyQ5xqY1aVeAcU6XCENr1Zs2bBuknfAeBgiCM0KE9SUtG41Ebbo984y5M+FxqbhGIh2/YM0Adp41JlqRxom1PhVehHxYfnCL8LGf1WfyoUOgEhzqITx7N+KnUvO9PObuS5mry+mhQ6QGXReihYhS8N43VFBS9TdlSyXNalC4P/guYJWYvl+o2p7EwsxmzL2ZHmV0FFaeB+TtxjlC3GqpZ6DQnFaopiXQ/t+Uk5ojL4JMMwz65i1rArRKkHoSBPmkd+48AK/Im2JbXHsDyltGxYJVMO5J0Dnk3dG71iMeg6olyP0MZlaUmBfyHtq/wvHRK7IrBnFY6YFAEhz0JhJpaUlOTWWAJxuzKFXYWlWmZ+8yaLoGDtAONVMJXBePOI0jaPaJpWjvr/hrkdk7VY+DfHkh1E2rl02M3kvQWaN4DXU9b/D38FLTcdnvyWWvdhjbZH2Y4k7e/ykPiISuDjPcUeosbsueMGaD+pEsqjaP7UNtsjpjZk2yymeOuJNLyKaKwL/VjNRgvMGh3oi4dp/zLbphzog3U/3YBV6k7G6Y5WUcVQqGjnLApO8IggZg1A3h2bNm16KYoV3nLWWjm6FaxhXenYodKRnum6doBxdkDsLF+QfJlyI8tuDFQ0d5zuQL1zi3R3nBXuOl0vsq7ajfZMoA53k6uSMojWyWjzWKXQTUss5nd/tsGk90VBHiWPX/4ObUgKI2aVJ7WxbNh2WZ8u7d1kFIt1rv+WPEK7lmn57VfavpB+9zHzihULYXhB/TS1UYVIAiJuFmuE84444ogWdpp5PZ5g8dqM9GtRrKWaRTtMIVtOVyVCIYPAs51jumEVzDTNKrumlTD4MlZx9JQpU7aQvgtrUUXL1Js7ZBVee+21zU855ZRvs+jfwcax9joUmlPg61X48quYgQ/RejOK7IN9g6dOnbolNL8m3QkTJuzAxmMEeZ6lbMgnnxVhak/y6yaZpbKE5+KOg4+NfipEqTrSn0GxlKPIQFr3GouChYzyma4NFEoSDgWXU/A9lMtjgnEtWrTww7nnoxi30YlvkkdrExRF13JWatmkSIb1J2USU1qKBz+jbp/QvJz4c1Fuv2jhFHgeNM9BwScwUs6Dh3PAswmfR9qNlPkzZd6hvvB974SJH/mI9MOAidZ4IZbEJ1990eNC+BtP+Bp2gzNxFyVFSW3Ih9m6RNtkHaltygH3I3g7i03JRn/cwFq1A2vd3BorTvULGcyVWyyE6C0jz2h9NHMKKY10iSTlMKzQFKYWyTyGU1zqRP0pPnVSQmlJxzyG9Us72ynm0VUR9GfLZ5VTTHXqN29SIMtn01Kd8mz5xEtqs2mJbvJn0biymNKyZZSXRygorkcop3keF8W80YIWC8PzKDIMU2FUrMUMxGsxOvkPSAUy7Q5qHd6koMcFoSPsBAWm4JIQ7ZDUecZnO0o0Tkx+08yTOjgpjunGmW5clpb+VK9uWcWxrPlSvZY3n8rues/8xtsG0xImWkmZEUzu4guFldpUtlxV0PpE6TC9z8F/PdaqU3anu7GC7UBWjyI/P5wdBiLt842ryhVLcIFcWFjoS6anYO6uYdT5xYN7WHPcg6I9gMAeAh+A8H0I8kGE/zDENY+Pgn8k/o9U+LBI5zwBnemkz1JRk+BJ81aTj2DweeIekhZxD1HPw9RzP3nvpg6vkRb130H6XSjUA7g+c30n8T6+cR90HsD/AOXuFcn7IPGP4j4O6gZe5BHFeRgaD1GnO5tHyf840/oj1guNx0h7lDwPktcnUkM7KXu/dYK+RHCPSD7/4U9oOCB83YcyycMtKO55TBt9WPBuG0W70YPHDQzYMBUir6BYGIGF7LyvZsdY8VRYFSi7eE5gvC8MzJgxIzwTBbr43vKEE07w/vKpCD73vUL8PmoxlV1mdjMQygRi6wnSydKKtF2gZ+NyGwIhTzhvO7/MwDqqPespX7H/TGsu4l9C//p4ev3eFz98+PAmWK5LGMXhOy8imu6To1MYzY2f1t+IAMvUDsW6n74LX7zAQKhYn6FYN2KdSx1F1Sl4VOBjyEwtlzJNhDc7nApRMl86mMIObHctRczeCA0cKlAsLdYNrL3qz0ioNB5UwsAFKFZ4E1pEsT5lnj7fx4nLHoY2QsOFhqhYF7LYW6S1EvF/CmPnOi83KtbGAxUolg/61e8ay6mwf//+3l9+Ccq0WKVyOmQX9inh8xoVa+OCBqdYVH6pi3cViykwKJYWi13GhrvSuRGqDZUoVsWvf9UF+CdxUVFRQfv27b3nfbHWSmZQsk9Qssl9Gu8g3aigZ8+efiLwHozDYs+x9tkn/DW26NBDD73O9XLMVvfgkwMqVseOHX8NM2HxrtVy8a5iDRgwoPEO0o0IMAQHokT3YCCCYmm16NP6t1jx6197tmvXzk+ehMW7Vgum5uG/iBHQvJqK9dW+fftux+jYt3fv3kWUH4E7RMQfLtbvHi/SB8Ml+Uy3JT5jFd2BWYROQMoWZzGbRxqgF+wPFaN/kPksKx8JEfwAkbqLLCsP5BlEWrjEP1tfpDFY3kXih1I2XOKfReNF85g/8jFM17D8JOzSpYsfDQiY4uRBXqwPGRzG7m0wirAP8VtVd31LfeGAlL77LE2F9O26/4SubYiKtTfz8NUwkjsg9RwLC3YpAqjW5baMlh2hcx7lF6mg0C2FySKWRfPmi8+HiceE+epIfv9bFMvG66+Irn75STxlyyVMNMVULmFF8WK2vlSPrv92WEZFaNWqlfL3opIrUdZqfVUCZexAuYeguXSDKhZKs/nQoUP3ofKracxiG6fQYOpTGn0xzFTre4Uyj7W7iMV/uDsg2zlJkG4ORP0J88Vl0bJVQfPmo6OA5ce0bL4UrgjLKkNWSSpC82XpZ/0VofypCCL9YNw8lic3Ic/WUbRVgmix/C91qXRsM/3prT0Vv7BaF8A0F67jpvJrUIjwrFRUrHkI5BJHTHUUS9OtCacRzWhMb+b1IVixIsx7fzH6B4r4SzT75BsGjsD8jyTuMAQzXKRsDo3P4IiE5pMG/lAH4QHQKtIlrh9uoUicN9z0h5bxgQfii0XDImnFoPwehqUeYb24w2jLYfhHMm2NpG2jROIOJzw64hiRuCMMWx4cBO0S6Ue6AYkviWj6ENE6KGc7Te8Lb32g1QYl2Ya+qLLsBWjlLFYaSFjDdT82U9uQLFaHDh2uhpFgsUQtFsz5alWL6ihWI9QueNRTneOerMXS+mkJN5hiabFQpmsxnUs046KLd7S9UbE2MnCNhRI9xJQcLFZcY224qRCtvgYNL7V4x632VNgIGxbKWiyVC6NR+aUgdQEq1qBBg/ZjKrwOJnLPo8OUj838GsVqtSk8WfllgeyucIMu3n1VC4vlLXA3ZKdC/EGxCgsLC6qrWL5nWFRU9N8obDM/AAX9gpKSklb6db1qSRw5cmRr4vYaMmRIG93K0DwJobu3qB96e0F/T9aJ0gp16E84atSoVglTHv3WnTClwdOe1iXt4cOH7z1ixIg2ulkk3z7rQstLR3rZekTSc5jizCtt+NjrqKOOajl69OhdvbagJgfTKpYWi9nmM5UqLt4Xsr6q/C2d2gYtFgIIU+Gee+65WEbcHqNYn8CcD/o1qWoD/euH3c0PsXjHopxPMVJmYQnngd7m8ik4T9cwW+lPcOdT7yLcRYQXivoj6s+FScvi4ogp7AuZ3mVuXfOgmUPjsvG6Mc78oYxIeV1vFw70CYtOIcFPnLfiLcGfxc/y4BLqcBO0kLZKL1eHWIa3wANlfD1L+osoMxuFeJs+uB9l+NmAAQN+EMVbJUCxwsk78i91jREWq34X7/6lw2hpCSNTW7VqFa6E1GKhZHNh6pw+ffpU+U9oFHQrhNOdsg/49kv6S8HGuYhMqPJm0fSUr7qYaCS68p+NM4+0E/3kz/KTpVc2vmx6FrN582G+MmUx8eLyA2ULfHv7IfLzk8C39e/ff68o3ioBVqktg+Eu5JC7KhLa9b8rLKtYKlVSLBg7t1evXj/WEsXs6wSmzW+hjAd27tx5LKPwdkbvoyjbQ/gf1KXRD2XCD4D3kSeHpFcLLQ/eH2klNBzSpEmHBZc67xX1p/SY5/6I+u8l7p6EZcOJRmVIvvtxH6RsOST+AdD0+7EiD6A8D8DfgyiXL5CY/iBxd6ME54FdkP93o2irBJQ5gHruhN6GVyzXQGj4r50Kk2K1bt36E5g632feq6NYjbBhISkWSrqwQSgWyvSbrGLhn4fWT/HphkbF2nhAxcJi/qGMYq377obahjKKtcQzLOd7D0hRrAtcvDcq1sYDLEH2x2LdgWIt2OCK5Racyi/3v0IVS8T/qYpVWFjYtFGxNh6IinV7HsWq33MsX171vAZmroKRcEDqzqply5afoFxjS0pKdoxZG2EjgN69e++FEv0ehZrPDBR2nWwOvFylfi2WZ1QeZKJYF2OhFmitXGPB2EoYeq1bt26/ZJ21swepAwcO/B55ty8qKtqhX79+/4nS/VdCwwlp3H8xhX7fMxgVU79I/I7GiT169Pjv7t277yBNpuLvZpG821YVY/7trFeaovVneUloWF49vDVsXsp+H4F/X7/p0kp8yJvhfDxWhsooK5tUp3UlNJxNT/yKXbp0ke/tY/3e7xo+/Mn6aWv4DB/zxP8N0rYwnfr8sOjmyrVdu3bHY61ewzis1EDQp75iP5t+vITder19Ezp3PlVQUNB9jz32eLJZs2YrZAaTGi7igMmVaP58rNds/KL3jHrLsPiJSAPmJsykiT7TJZpHTOGAKHAoS75AU39VMOYPyECYDc4xHr4/iag/IAMkhzEu5En14Rp22hdDfKQd2kvcnIQxPi9Ca3bCbJnKkHKhDnibjWWZ3aZNm4DI+mPcj4n/iHzezf8h+Uoh9cwiz0ctWrT4hL77mDyzQHlf5qyDgoUlDTRWYCDuRVF7qJyxu+sW0HJP1INyeYEsmr8fVuQ3MDardevWwYzKnIzq0phSmHaQ2TgaVu6AUjfFVVQuYUqrCeajJ5blqSwfCW1jPixLryqYrTNfelnM8pEvvSxK1345+OCDw8EqyhgeEJRflco8tPUf7BAnYd1KXR+6QcD/qHxUBoZ6YUInMF/fjfV6Euae7tSp05Pgn8A/Ev8Y+Cj+h8n7MO4joIehjyUk/HjCmF803yOmQ/9PZZG0KiF0nhBjucdB687ykuoJcTH+UXnAlZ8/HnTQQY+Dj4GPRjTtT+T1Bp4n9GfD2Tgx8VwWyWf7rTthjoeKEHrlUFmRFmQp31mkHvFxlCrwFNvh4fBNxE8gvoR8u/tYVOzahgPsBr86dOjQb3qa7jyum9CrlNaF68qfTV9fzEe/IqysXDatpliWZlUwrpfyplWE1sXaKaBhlOibKhK4jl38V77y/wHuKtXAfNMXtgAAAABJRU5ErkJggg==;" vertex="1" parent="1">
          <mxGeometry x="60.88" y="260" width="80.36" height="90" as="geometry" />
        </mxCell>
        <mxCell id="JH7_bKmLKvwizB0ivAQK-3" value="" style="shape=image;verticalLabelPosition=bottom;labelBackgroundColor=default;verticalAlign=top;aspect=fixed;imageAspect=0;image=data:image/png,iVBORw0KGgoAAAANSUhEUgAAAJIAAACnCAYAAAGNyzUGAAAAAXNSR0IArs4c6QAAAARnQU1BAACxjwv8YQUAAAAJcEhZcwAAFxEAABcRAcom8z8AAEuuSURBVHhe7Z0HvFXFtbhf8pL3YmzRqNF0FRv9QhJ7RVFA6oULlw4qCgQLNlAQYy8hkSQmGmOJMYmaWGNiV2xJ3j+JUen2ShNFUVFp+X/fMHPc59xzLvdcuJci6/dbZ2ZPWbNmzZo1a/bZe/Z/FUL79u23PuKII7Y98MADv0S4haFp7dq1+3KXLl02b9Kkyf/GorXD9773vb9OmDDhcyJEPterV6//FrNpgwcPbrH//vv/J1YpDRB7OkZLwsEHH7ybIZzWTvCQQw6ZEaMlga5XwOVnjdfKIcSmxmhJ6Ny5c8tETIDT4gSRyVMxWhK6du367RjNQVGCBx100L9itFagXGWnTp26Hx6hW7duHRiYb8TslUD6tBgtG3r37r2S2H777fcfhbnvvvv+x1GSbVoPaSLdDzhq1KivhwpFII/YAQccEPq99957L+/Zs+cmxrOjZUOkt4iXNaBHjx7fCpEssX322WfFXnvt9WdG9nuRqzHf+c53ptHIO3369GkZKhSBHDG7BJFAjC4uR3nfgGDoLulnNG/e/D8VFRWXVFVVtQoVigAz5ZshImfAZ+HmZuLL4OINuyW3jFTboUOHbq4shwwZUpJYbjTpxrVUvpEKH7Zq1epyiPwSor+G6G8Jr+7QocMVcHtNKFwCBgwYsJKzBMjnyRgtG/r3779jjK4EuvnvGC0bahA79NBDc0qbRpiu5lA5ig5Wwlj8Ez1LcNhhh63SapSCGsRQkWdiNChp4ibLiSqTOE26KfTt23elniWoi9UoBTWIMdEvpcUFcCO+aYjs3oSjtyIaXwB3CyhnfK6Icn+Enn4mklkJ2nnktl1aUNCtLbx2QWFwtnSBGTRo0Jdi8dIAB6+nhcNFBGIhnkXSnGIDYpXigOavciFx0tO9yxB6x5hUEyiwSkLqnCGT/efIqltILAQEvEpCqkaMOod/3bFjx4Pj5SdAa1NitCRQOUdIoM4PGZAO8XIlMJyrtPWMXGe46HrkkUdWEm+PQndSUWP2SqjL2lgMgtzatm27TLVHV8KiYNyMFJpmWNilLNCT/4QfC6rVFJ5tBmx/sXv37jtAZGxySrJzrBBC15yQjoRq/93vfjcQIp6zVzbCUE/LrkCFEAjJkcT23HPPhVSYZ4ZpLhDGkwdTG6GgElZifTvWtc9KDz/88OfkwkzktyIWvIN47YTwUI6E2HVwdT368CFsXgWhX5N5PVzewEj+ki5fwWCcE+vVAJmJ0ZVAQv2HPwtwUS/nowYhuhUsJUJfZr9lWXRUktwSmo5b9BPLe22Yg7rM/mJQgyMIhUnbokWLnLHPcpWuU4h5/rHla3BEgXoJuwYh5xWJYQGA6HxaXYAiavgXgBp8096Ec+NhAUBF5oH5hLLAAki5fYJgLZjQWWDXjJuf4sXKiMbRQ73GfpF0/QEiT0FserysN6Albe0YM/Ci6DD2j1nlAzNtBr2sl3ZlAePcWm3DsoV9Bx293KGFdvdQoByAqVlrgim0t02WqQQM7a81fkivMiatGujNU4h9lWveqgCb1sphu/nmm/87JuVBmzZtrta44rCUdgcSQOgperjaTLHRaCZTTgC8phphiqdJge+7XaxaExDtdKRV7w1cfcAJkef2sm/Ytbq6enexX79+u6ELzyLSmWxcdsIL3Ynt005U2JmlqIlx1rQmXtOzJsR3s45lvUZ/to5ky4I8ppI9UiEVNev/x6x9p2EWFnvNZuhkrkfD0Onk/dyyitvy+BE3VVZWDkKyZ5um72Adhq0iEC8D5CO33XNMbUCUKMTfNJ0G3fYtN966des5scxfvbbOSSedtAnXbSXGar8Qxo8FX3XKI92SO+BSYKdyG1oVTEJO0SxTzIx5NBiYygKz5b7kyzDE58hsyACaNm06xmuGsXlMqjNYL8eUPVXkXbt2PZ1GLsbgdTIdSa3A2C2L8ZcdNoY0zBLLI43W5sH8cOrtYpy8ReYxpCW396VA+rk9sQ1JSCmJTtPEQGJYSYrmp7g9k8HEpNIzHQZr3dmXAtuscQ8nC1j0KTRU7x1tfSAOe/4ePQtI6Umk0qh2apVMRUnlrX3oWn/s13HgSGbZCMJj2QUNY1sxEnMxPCGeQUDKj+jSpcsJ5B8vkvZ9kfRR4CmkbRNJB3D4auzMsxAX5HrfKqkPyFTOThUDpv2zmIY8prTa4P5ZZLbsh3Lug9hzaPrAgQMPIO9AFP5AQ8ukcoZDhw49YNiwYZ+PpAM4fNQtebsweAnMvNzdlsaAVQ4fSj4D+9Ooiq5ZYR0tregCQzgahb4fvC+i8cnYoYfIe5DwQfwl8V6u7+H6PpEyD4mpXCx7N3oa0Lh5oOn3k38vNu6eYjezawAb9e0gHu4iiYy54RYQ2hIDG8Ju3bp9Gaa2TkiZrVDWzcxj+DdHDfJmWL0BYnO00i66Cb12wUyopS9WxtA8y6i4XC+MZOsHKNlWEj7qqKP28BZGFr2tkUUkkJcv6vImZE+8xGUHI/xuJF8+4Nxt45oHwf+JSfUGJLQI43gd7o7r4eKYXB5gS7b17gcSWG2GkNAihu9C77Ywe/2T4O2YVXdgqL7ikNW4V1oPwL15HyldZHzQoEFfUK9grDymMgzl7cnqAwz9B4khgVn6vxpDhu+DmLRqoCfbrykJyRAMXBwvAz2Wk02diZiUus2+4447bjunbeHaUx9geD7AJv0oXuYA2l9UUnR8QUwqDSq1EmIKr7ZSsyx8yPD8gmgNaSsplw2Wq3CPsiQkhrz/GJPqDQzZ+9iq8+NlUWD4VlDmnXhZE2TI2aCRi0n1Bg2jUrCD6o32LYum6d+zplnmb7FaPjC+28hQqZsM5QA72D3YnHbDa+wWw0oW0m7MtvYiRvMIdjIddBIxEcW9DJXaHsXLRgEE8DiSKn6fcm0whA49ztCulJC+CK7kbukGBXZoL8cWt3RnkcU23KDA1dg53azwJoVInV2sg5u6y9FHH70jZXYNRMsEpPMYBnSqjlgn7UGcfsFdYCxD3BughqKKl+KWpUfBxTDda0PpYOz+gz78I7ZTZ4DuI4EhiJ0qcRkRJYoUfszW50c2yHbmVzA92rsmbHXOYqxftLxMsAAvJ29sVVXVENL/muhAY35sp85AvUepN82xG596LUqQodja+zsyR2/dy3+Gxj9P2WAGGM5/Zf8LSV4BdK6XFsy9ETLKADr/MDhLImfKRCFD6pXXTM3vokPhgReH0MpIawhKf69xlobFMkGdCejTCUqVvHoxhABmOmRjk6glbKjH6NZECcHQXiovkvo7+ZOtDEM/4fpq43H4FiCxKTD3tHWQUPjfqxyAxsPUmynBcYkhiYlI50swsaOKysL4nVgnAPrSxjIob3gkQclR/vCQCUBUZX89XtYZqDMZurOcbqcpGZkSZcIhQ7F3kUmUuw2WtJkuaDLzprNg3hAJBbNPONxrGQLnGC8HqO8sm6F2B4YI3+vTp8936PEd5H8GRkbbEA0380ZqYiQxT2+C20BaU9ak7xuHkd2VXn0Yot5kaE1X5CfaGA2/PmrUqG3NREItlIYMwOSexxxzTLirb2Oiw2QdhvOGESNGbGYd16zEMLTmmlYOUO8RaE+Ts1PsMUQCumRECeRmncMgA6INiuaZjiRzk8HhM8Swls0QbT4KzZVLB0R+QWO/pYHfwsgNZP5Ra40EbmU4riP9V4RXkncNZf1b9QYkeAPpvyG8DryiZcuWv6TMVZiGq4cOHVr65kEJgBmXjuL/Zjl0DtmacGHrCnTyEST9XLzMBx00xb8m/KG6ggwhpeIM6aDJ0JpwYesKMKQOlZaQyr0mXNi6AvrzaMkhK+ag+fQZS8YJ4HHt27f/Pjic+DEsLbmboCJp37eMN0O5/n66EYo1H5W5GXo89YdF0gFgSKWeGS/zQYZU6ngZACM5jArBHBg65R1Wr40nNC+lp/JiSjNM8Ug6AGVX2qFi4M7VSvGyUQD9eZQOFZ/27u3tbbxsFEB/HqHN4k5+KQl5SxifZz9W/ANwTwIW3iKm7r6UCbeGiR8kWs/0VMbr4cOHt41kA9TKEJWCUk+aNCn3WDPW++ysDpRCJZvi0vDaMJsnnVatWhXToVnxMh+SYcwy1NAQl47isywx5D+MManBAWYeLckQLkdQaqDRlg6G9WEYKrl0fN7VnjFdAqZHJxOGp2VA4z5OmR6j9GmatyCcysynU+GJGmzaW8TD45UxzfzwmCU4Dy9hPkOm3crdaasBWNkd8Y9ux3dOd/Lvw7o+QDgZI+kd+odw9B/GH7qP+D3gvbgrlkl3/B8GLeMde+/230v8bsty7d38ByknvQdImwyjx8emywNv8+E77Qkjt9LztyG0kJ4tRCpvF+BCev0O0/ltQnEh8YXM1pAnWs8ypAU0Xgypl0JpvEv8XUPafgceFsT858FBkc21B97lQ9pX0rlwv4kRehaJ/zmOWBYdSUf2AUbK59fvQgPuVAvo0J+8Rih/Qdi3mkbofzPS+Qt174buvWoJA/Ega/XDXD8C/oUyf6K8+XdS7i+U+VO3bt2eQTi5TRPqv4h4dWS58YE9ybYw9IzMgDNwQBrNfJYChNiC+fqeQkLIi10bHETCpQxIVSzWeDBy5Mgvw8g/YcqRm96rV68tY9ZaA7zA3RHIe0w9BXOh2s5Unqimo3Vq/Pvw2zsWb3hweUGDpsOEjT/TmP53KejevXtzeAnPqKBBl8JT+K/myiuv/Dzpl1VUVIRpiO2aQ5i7QdJgoGOJXfBJRUftaYz4av95tLrAlK9g8+w/YmFpTEJK4Jtr5F8iz/Ducq3RL/9pyLqCzi7TLSuk1f5Da3UB494GjfFfOgVwcVZI2Tj2dBO06kr3V2oW/C9CaGteWAoJwj7Nss4IiZWuLZoS7sZmp1spoMxWlP+NfdBsYFvfYuAPjdmrD/rgCOnf0UhOhaEvxKy1BrgAe8DLe2oIhnqSd3Lo+CptZb9+/bZo06bNz12EFBZaNqdr164Hxez6g0KCgafiKDzTmHdySoGrG5rhf9AK6XIfxIhZdQIHum3btjf4p4WDj0YuQLPqLyyFxHzOCakx77+VAoWEFgUhderUaVaPHj0ux3f6UceOHX+cEOP+Q2zXpUzNS3BAzyf/POqdQ97F5F1CvUtYuX+vYY+C8pbvPDSrXWym7qCQqBymG3N7yjqyum1Lp/z7yldXVuCJr2AKrSC+DB6Xw+8KOx1xOQP8oUgfdDxT/CPKLSX8mHofOQWjcZ/u32axqbqBt5RR6SSk6asykusroG3+e6WQptX6pGExiH7SdCo7/2esC6tbQwBa9bjTF22axpQrT5Pis3vT4j2U1X7LZF0FpuVjConZMjWnSVp4VGwsEpzJ6vUqhV4jfENEmm+gPa9R6TVC4+GmInk+/vI88eco/wJ1nwOfJ57wRdOp96JlYjnTXzINDHnUeQk6L8PQa+S9ZkhZH5l/DnzWfNJeYcWZ3Ldv35qvnDYA0OfH7KNCytkkmAz/ZMNU+CMvi6ZZwSlmGToS4qL5GrhYbgWer0/trWA+r9BvsZ4oDeta1ni6FmEkrCgs4x+DS6wnbcuYV4AL2Ku1CUw3INCfR2sIiY6fFRMD2ukUKhTjdORNDHe4NTJgwIAv43zNtiOk+4RGrc+s+Ec4dO6yvPQUDgL5kPgItLiGr+VGmrwJCMvbHYEP69DWHIRU9jsN5QJ8elfSgZqZe2sEBsYqpDSypYTkUwCWtyKdnG2+QnJrYDpS35X4o2jMywjuDXAaS/Je5gldunS5WC1h2Z7tfSDTdP4o1xd8mrJPEeZeYqS9HaH/TtJa4rMRYNlvo5QLyCKsbnlCgoGxiZHahITTtZXlsfjfxni/YTqEltLh8BwHHaiAzjwbsC7Tz/qPmCeQVumLr6T9PCb5iE548gXhhCnmPaC4xXCrENqXVtSk2fV5ZadcoF9JSDMYxNyrPmfKWGIodTIrKDoyv3///pta3orpzS2YX4bwvhcI1QJujhHg09JGY8JTOQJtn6VwHCS0cKj3gcjf8uSTT9700ksv3RSNDQ9lyQfh6/BQ9stW5QI8TrY9+JqlQoREOjpOIcWMELqKKQRHVCbRnAVUCIdA4M5/i07NtWOUWcH1nqbjR22NmzCB0b6KqXIZ9uMytgP30ugbahVC8MlnaeeExKo62vYQhi/93c2U7NK5c+dmMdsHTS+SJwdKOtAt+zW5coH++lyNfftkusHA6Ul7oloHpujAIlckO0Ceqhdu1yKEfcj3WXTLLqdcGN2jjz56V9K0R0HAClqa0kM7QmgdOn4nBjs8+YaAW3P9ir6X+QhxCoztZB5lvkja7daJfM1pjOnGoPj/qArjLeqV0w0GxsqgHVM4bP4u0psm3VcZPptWNcFnOejUZAUQ6yyl3O7moQl7MA1fUfukpYCkJ6YBMG4eZf7oEw6BaBGwTZi8zQGyjjTR3PmsrGW/BVou0N4jDgx8fuICkHCmHRaVoNOI+Mek+wfvz7g+D436HZXfSEbVMnF0Xa0eRAN+xXS6F2EsUfvS9FUgCb0WbUMahmjhAsreiiZNQMDjEf7tpIeXZZImOlVtC7oLmdKrtH+rCwop8vuJx42t2V+bo/RkSgYT2mFHMmmO16nTlk/5dsI063htWWmlsgokxc0zTIKyTsr3vo71ROkk2toywl9PnDixwf90p22fqJWHaYNLvTOavQVCPHfPaNKkSdsy8rPsJFrz/P3337/W/1JqCGCwgk1CSM+yKq/6pbUsxDuTTzuVIOKtktV+b2NdBPoWphta/BwuR+2vGhaCRpvp9WScllPXhdu3DQEIyWdb7GP9hIQdCTfd0KhpG6qQEFD9hRT/LQn3uCHivyUbqpCSn/QsLkB5NsmHJ9GkaVFIJd8kx5kc4b7L1cvViRHJrVTGZcCRSmia6CpWClMZy8cO5NIS7VTWFTdbN+Wn9n00n/1mOKapGNCGro9tTccvK/32ejFQSHjO0zTcCKqkkPBS/8etCoz0BvuK1KtmReyNo9obv6oP+T0Ie5HXja3L4cQ7kn+ESF4esk05kiJV1mOf2As0DHHyqqDZl92M6d0TUq8rYRfqZbEr5QaC3cGSjizCCS4AtvcTZ7Ku4D1uXICZ2qTahLS+A9oWNEkhsdUq748Ad/JoRPCTEFK9z2tc14FpGVwA+lk/TXK6RSFNcV8Xs/IAm9SV/BdozCc4fPLMjfJ7xN/DTr1nnAUghKB574DhccFiSB3zrf9+rPe+SPoHoK+jfgB6/S5onXcMpZlBabwLvgdvc5nWJU8oQ5Me0s2hn+XbJJbD7WDmGRpRFRVS0WcBsBNNENRP6dDtCPUPxG8GcyEd+APMiuGacreIpP8xi+Sbdit5f7SctFJcjDRC3LxY/jbieXSsI33yb6Xjf8Q2XdOtW7eSe8BkkxDWLN9Yi8l1g/QsgFJWSI358HJjQhIS4cyyhaQmocpTkibhXH4xZm1QgHDS3q18TfLOI+r7f2iTdwXecSn1n42ePXt+jfCronGxe/fuXwd3IL4tuLXon5sJWba3YYneyni/fv12sGxCXIjtU1yaXlsulTfEpgR6uAXbSqu6unoby1Ln69KTh8SP18YNrZP4yaI3FH1Bjz4djJDm0D/vsf+LtO1j9+sO3s5ESL5JGhwzJV4M45QMt0VE4zSecwaz8VQ+xQsxlS3E2srUlicm/hLal3Tfyht9pP3t+OOPL89oFwNcgi845bRNhWh6XbFY/SwWq1MMi9UtxGL1xJRnGLu3+qCKIvUv4Vzmnf+TRVadL7PSbCla1pDR2iKh104dyzplnEKFKA3r6iEzJTajbKjHSG/esmXLTWl7U7zr7clb689K5SDag5Nh/Fm2J++izuk1iLxXJlBpX2XwtYjwyoSoz0N6eGUildGngVbu1YhiSJ7+VvB/jJMmvoOgbest85jSt2h3IptrD3QeGclfurq5f4O5EBZDy4jJJokpLWsLUloxGgmta5ill+LSMPTfFgR2l4Y5srt2gJH6DqP/fjRwHk3j+V2F75Wkd0t8G8h3RnyvxPdJ7qDOHTh0d4J3x1Dn7y6vKf9n6t3N9LkHTb0XfIDN70PgZOK+VeR7Jb5f8meu77RdnFbLqmFhwDTIGN27CMM/zWsFmGrHYAcCQ2jUuR5u5T2l2lBbUYgIKy/d62J1s5ieqhWNm+ZNP7ToF2oSAgwrFAL3L/O/rDWNwrieqpozqmrS4Ji81gBBfRbBhDOPQZ+N/IgpF6Yf8QddEGLRxgNWmNEKKc7/tf5uGUv259GgKxQMQnqrsrLy+DZt2jypn6MzSNq9LjSxeOMAXu33NaCqNczlvQ++NkBNwnBPUpMwA/M934cBrEBozzuYpmM/73NKxyoND127dj2ladOmoXFUuf7nja8h8K94tg6XabAZvPmYg/B3O1q0Pxrlm5RhQBHkLfh1jbMZxxiG55ji8r3WhaQBx/78VEEgpDezT6Og6fu0aNHCZzKDjQKvQ6Ma/s9U9m3hOSYbZfT6xOS1Bq5w2J8r4tI/D5vZNGYFYKrtz6D6UGxwD9CuG3EZ6nUeeJ0Bw3jGuiYk+ElCmlsoJAHB+KrXy7otmgnK3oOpaLjXYtdFTUJTrnRKlRKS0LZt230R1Gz51n1Bs3xRetVfJaoPrOtCytok4DPZNxbg+yCE9aplo526E0O/5m8adu/effw6LKT5BUKqAZQ9At7Ds09MOd2YW9GocBLWGoN1UUjwc5VCIvTp4FU+dMpU64wvFQSljaLuTd5HitmrD/gapykkBCTx1f9ozGqCLgCd/bkbbnhSSHV6EJ46hzL15rGZDncTMOq/QeBr5i1Q/IyTZEg/CSGtE3s3tGGSAwdfb7P6pucpV/n2FH04GEf0NTfEbrMQcu6J4NUCmDgp7ttU1do/M9cIEO8gXOG0wQS8i6aX9TwlgmmHhzBXjZIGArtptbcwrG6jfabR6QbBtT7dfGwR4fxUTWLg3mV5zzthsi7AVFOjPJYn2Np27dpdj1ZuEbPLBzVpXRKSwLS5VBOgjendu/fOMbksQDDfhcYsFwDvHoA3Zh/LLgtQ59Fx/mrs+sbktQbaJEb/J/KDJn2MkG7D9/lhx/yXlCeC4UVlhOFLyhdxPQHH8wKm2UUY+0urqqouJQz7PE2J3jlaeR1NlP9mKBvcMN0kti6sbnG6+Q3Z8AKPU8bVKhryXJjQ62Jp+FihT3Hww91N+4kwj4pN1R3wk07C0AVCOGJrXZMEOjQSwSxCw33vzrc51Qbf7F5Gx5fDa+5tboSwhLI13uYm/WPzSPPOZnhYXwGidWNjM3UH7/wlTYKZtX6rREh/TfsUG9hD9Ck3n6BDE7rjhfdgClaKpHci36fqwhnoxgWmVkeCTn379u3Qvn37c1AAb+L9h7qnx2bqDn369DlRm7SuTLeGAIS5n8bbGYNQyxcSBm6smhSn29o7EqwBgWl3qMZbxJifFpPrDmhSEJLznvm/TtikNQ1o0WHOFIVUr+lWXV09Jm5JXCIb/7y0RgAG/1CVAIPuK21jYnLdQckqIO0SK0DXmLxBAWbkEM2Jq1uN6TZs2LAtcRZ3GzBgwK794ucbROPiUUcd5ScaLlGT9CcwaqOOPfbYb/fv378Jq0L49qTI1iV80kFEqE3wrcJnHkTqh888pHzriqlN0fgxxxyzs38P+bkIyu3qm0K+mxtZbVBghrRLQsoz3Gzq2pJxD+jJEn4S8nUwnC4Bvk7662jQS6jiYlXR+crcfQu/YiYCe4m85wizJ0y8QDmfvn2RMi8g2JBP2ouWp75pLxinjCdMeMfwNZG8V80j9HQJ/xZ6hTIzu3btOtE/IyPLDQZqEm3mC8kRgokHXPIUgAVE0nJxnSuvnadqkt6tU86l0vRUz1AfI9XzWszSMi5KR2FLW0x5qS3zDG3DPD1jNDt8aaAhAX4Ptb08IaFF36TzalBgLHUmoZ1JiCqGysYVmMJCG0I5NGY5HUlHcBjm6pmfBJGuk/BsE5rL2Bp8BEojlJFuFm0Ppt1PNSik1S1PSNiVr7Gsv5w6IdOJMa9THA/1r1QaR3g6wvGjOGHPg6f6POlnslk8ifTRXI/m+lRs0Bi81/MR1t10+iNpKBQ7q3ZYF+31FYxL8JhHYs98P+Qk2r+SNB/wCoJN9RQehvRXgekGBNo6zDYVUm5bonFESOFfhKwmJeZSOphbDiFwhppihyl3U0wuCt4/RnBHU3+RdNTGeCfhEYRa9IwThHgwtP8hD7avsBQSTOdOpmgooL1D5DMKaXxIHDJkyE4w/bLqn5gqJiSuzwoVADoQToVQUKT/MSaHG/P4Fl+E1heYxv+T/UuHjh5rHTUIBl5iJcu92GI5y3vrIyb5LNShlJsvD/KmkNDQn8XsBgPaOijxyaxZ2Wc/k0GCq1FOQMWEBK6UKsD0mWCatoPwtpjsozmnoh2vgp4N8Brhz9HS8E8E3ron2YTnoxFA7l0z3ISvUPb31iHveoSceywYDbw6bYPiyF4esxoMFJL9ytMk/ZGKigqX5iCMugiJUc2dgA/R22Oyy+cPnUoKXC1D+CuwS93M8wgP6D2uRtD53Bm0XP9OQTil4MPRux9BHU04CJ/p95Y3T6YbS5OSkLS1IVFHDQMaHlNRMLUIaVyoAGSFhGBujcmeO/ITOxXLK6Ql2KAu5jGdNmvVqtV95qs9pvnWU/PmzZ9DZqE9hWE925TJqKlZm9QommSbts9A5QlJxy9PQElIosySnhMSRIKQ1BaI3hmT3feMoqwf8P879Z+izvnaGvN8nQGB+hDoMuo0MY0V0INhniddYXxM/CUE63eppiHQp2HU49DCTTOZbiwh2XdtEoO3cvYMHz58J9TdM9bCNEmjl4STRhfMrm4THFkFiqbkplttQLkT7Sh0l7hVMc0tCml61Lb1hMacbcqmCHZLvyfBdVN4e0u+rJu1ZQ0FDPwhCkkFyBluhYQdcWuRE4hMi6ZFAXm9UvUAyp9nvi4AWlCrkOws02sUtN61cbRtCZ0Np9ogrF1Jf9102v5L4baD6btpixYt5ikkR7YxhERfgybZt5yQdAEYLU/gC8JQMKJTwNDVSGOMZHPTjfQfqGVqE+Vy043NaDs6fk1VVdXPmUo/wlhfhzCfopyfrAiaSuNLaDxo0siRI79KuqcH2s5CfDY/Yt4DVyAdG+TKGzTJtrj+qekNCUlI0QaunG4eWIIQPO4wdCJpk4ybZqjAYPZsy+vT0NELVX/TwZwL4F80rlA24EiI0kJ7csKH/lI0K5yBpPuB4X6dFTB8X9FVjvovjRo1Kvw5iJC/3bp167fTdEO4fma1QQEew3SLg7Jy9vi2MgLITTeFYiE6vxjmP04dxqaEL8c5JYhfnaYbYc6ZRPJnSycr8FgmCMqOSo/6+1le55G8HyscbQACWUG7OVcDrezAAHo+U6ADPw0uJNoPQoo2cOW2RGOpkOyIHYwj/wSr3r4wVammkH6Ry7XlcRg3R5DTSA8dJv6HQAgg7Ww7Kx0bisIONEXjdpbGr41VdA22ZDXrhDA8DLSTdihm6bRen+jZVmMICTn4UmAQEhq/UkjsK79FgieEho7AyDyXa/Mcae2DfwKGwgBaUA3znlIcmKcTN8YshXS+nVGDzBMVfkI1wjTqvosq13pnEy3qylT07e9AT7o4mWvmyY9agLbayaMLBUJaeRdADYEBj2UNnVCKMPMHbFUbBJR7uIkR3x6bMIgOzksa4tTE4N5+7bXXfsH3POj4j9PIJ6EnTJqVph11X9azTgMiaO/Q7B3Qpv6UeZP2Ql3bsQ4uw5WxaIOBQnJAbQ+buFJI2JhvtmzZ8g0znAoyZEiHXiZ+E+EFXF+GBj1BxdwJonbYDnA9B+HeQN5VOF+eXxvsS1YwonXMi3VymoWQn2K6/QSDfRrt/RTh/wNay62TBGpd+UJIvwtMNyAkIam5aNLKe9wuwxjOl5lmgRE1xEKquGinZNSOm2dlOycmQRi3TOp4qms8paXQDqdOq9IKwrIOjO6G9A0tn/jxWjcEphvcJsHjobZtf7C/n/xbgpbc4EkwMitjMpyE4bUdSR0zbmi+HVBI1jPfuHmFWuR1Nk0G0mAYN8/6xqVruuUSfWkipIVM+bAqNiQkIclHnpC0S9iBs8m4GkZ/w8g5fa6D+RvB36FFXv8SmzPT0bdD2JOpMH6ViFCt5xdMr6BDV3J9DfXEa0nzq6bXg78B/brp7yjjg1K/Je9ayl4LvVCXAfgF8V9isK+UDvu3qwmvof0rsF09I7sNCgrJ/tlPFo/SD0y4qhliSPMejcP5G6dPo/rD9KiYvEEBWnSwQlKTmN7BgS4L2Hacom1wCjAVBsbkDQro24EKSZPDdDsnJtcd2I/lnpmE0Nr/4FwDwJoQ0gnO1WhY14nnk9Y0JCE53fCTfhCT6w5ZIWGXNgqpGODMhYe4FBI2aa0/x90QsNpCwk85SU3Sf9qoSSWgT58+QUgQUlAbtJA03PUSEi7A6A1dSMwQZLTS+8dhnhCT6w5VVVWnJSFhk4o+6eZOHuLf7dChw/fZ8I4Ej2U3PyJds0ccTngcacNIOwYv/thOnToNp84InLe8z7GLpI+knHicaFnqjDAdPJ5l+gRDyo4yZPRHkZ/7XHtC80D5GM/uYs9Sj/GwKzgoI6TcLes6AzZpjEKCkJpUdJtw4okn7sB24kkb0nYZaugTWlchJzQ/lbF8IaZ6qZx1Eo1iddPGurB+KqOtqaiomFP4jfIElAlCshyCL/85bqbbGCUcb4UU1STvB7Vp0+ZxN6WpM4aijJqeMN1SEdN1IZou04ZZWtl4Fi1XeJ3QjitE6L46ePDg70aW8wAe95dP+4kGrp6QYLLUhvMzTKcdUHkfOA/HujLF+qLiHuVaRV41U60n6ZWGXHcin2jxY10p1wFmu1tPetIAq5kKvUnvyWhXE/bhutJy5PWgXDfCGse6mk/5YbTVlFlR9JUtBuQAB8V+QmPlTbdyAMLh9VJHCOvfcJ9JXYuApjHjDgz3rxB2+ZqECzDOpTGq9AYpJPqllIImoXXlP+xeXV19ZhISWBmTNyhg1T5AIblAMT3LFxI2KUy3DVlI+klputXLJiGksxSSK0ttQho0aNCX+vfvvyeatx919mfF2x8f6wDjffv2PcDrhAMGDNiPlWYfypdEy0DrQOsOHDjwAK4PpO5BQ4YMOVA0Do39E51i9Pwf0bojR47ce8SIESVPIV1tTfLdkmS4WeGKvoDTrVu3LzMlf8MKsQB8lwYX0fAiltV0anI4SZkRS9fh5GPCcHpgEQynHxN6cnKqZ/wD4uE0ZfI+MA864aRB4uFU5gJMJzEvpA93pz9bCwEF2NfVzftmCKl8w929e/dwZ9LpRmNF70wyak2aNWv2YhKmZbM+T7o2zOanvGKY8gtpaB+TjUzXhllM5UV4DmVwduehTa0jy3mAIIOQNNy4FbnnROsMSUh2DkJF70wyAp/HD+nfrl27mw899NA/4h9lj5m+mdFOR0TfjCaI6TjpvKOmyQ/povWhlXfUNOmBjmFK5/o28vLomC5t0m9FUIa/x2c6lcHM/Z2eBTRxP4XkINdLSEylsMFVSKU0aX0H+hU8boXEdMs9vFFnyAoJia/1EyYaArKatFFIJUBNWl0hnZpsEkIaEpM3KMB+5YRUX5s0Vk1yhUBYG+RNN/r2Pf1A+8i2pPw7k5WVlce5rLKa+Pjub3EOd+6ZOdVd9NrHaQzZEIcT2YnXONXdsGvXrl+Cka9Yz7LUC6e6p7hoHqvltqj+VomO8UTLPEPKfQV630g8JMTRDDTidShLmHeqO07qVvLiNxBYEX/Wvn17n7rz9u2I2PW6A0JqiZRnq00QU9oeGb2gBL4Vw/ksvfMR7pvE3yQe8g2hZZrXbxN/izQx5MV4QOomOtYXA70Yt+yblmGKhLIivJmWw1h2Hji3AE2bx8x4E3u0wH5RXj9pDgIMz5uXDYzcSRD7EJtU8saXSMM5J8/QtFTeMGG2fIoXYrZ8tl6WbmFebXXFxJ/otWV1IBVSmzZtPvA2cOxy+eBpMDiIHRDSFUy7cKw01zWQ6fgAavsg8cmUeRh8EEdO9Hhqj45+yHTKWC4cUU36PaBhoCtGWoEO+DAY6oGBBoY20X2AvLulQZpHXAf0WqTs3eD9sZ70LP9ATPNo7AcQ0MP062qc0nal7oGXBRMmTPhc9uz9QqSRomfxF8Ni9bNYrE4xLFY3i8XqiAV5jfJCdEkYPnz4N9iNd8Jwn4qaX8ge6gLs2wVM3wsZwYtYei8yXgrNFy0rMuIXEPpl1XNF4+D5Ilpxnkj6OUyncwsROueJlpUOWnch5S8CLzY0rY54YcQLqGfbiZ9zDCNPeXyZjs08ly3cD+i/t598tPsiNPpiZcNU7+hiE8W2EQQ0eesuAIP3K4Q3C9u4CAGG95gxA7knEMWsva0NoVUUGYySWKy8WKpssXZrw2zdUvQL86xnv5UBChbWuJYtW65o1qyZd3PuwlT300OJovx0gv/jYgK36dix4ygUJn3sLAiUmakQlzMbP0SxPgAXl4EfImTrGX5QgO8nJP99PJ+AtGNaYbn3RMuB8hCQsiHMlM3jj2sx8EB/xI8yGHiiXGjfeEL6/35Erz3e6n2UaDFyWKpsRGWjQqlYKhrl3qfcPZSpYvJtkF8cXiV4PBb+fw+EdXeyQAjFDZ9fqnsU1/1c9h7VzDi2Ht396dmjR49KMV0XYC8Rs9+bsA+0q6TPNUE3f7qyv/GDkl1II9qZVeJIw5Bmvv9a4gn7QUqTOpHWwXKxbg8R2jmAxx6iPFVVVQVkHwbbvaoIe1dXV/dhz1PNMmQ/+oK97Q91Aj+0EY4Bk0fSu4jSlR7Vuw4dOrSSfdCZ8PQ48lmeLJsTTYViOQ8KRrpfCfQ7JH6ss/G/DLE2ASFvw0CehCD+jSIFoeDdKqBnEcgwHNE1c87seg4o9dewgpcywRYrI5UoKZNWycmXuV4EPoQMhyDLoreeNzhg9vmRrVMQwDOY6DSz9AlmIJhBKNIG+d3zckAZYLH2wsn2/cpF+ksqDUryMbKbynb171y/QvpH5rFcBjmiTP6Ldj8bhP7Id80eJb6ugRYJE388QvqXnXdmKQjCaQhtqNvIWPRTCyjSZ1lu90BZJiEj/7oNitKmTZu5xM8dNWpUU5bFFs2bN5+AE/4c8vNo0eBDuVEhro/2IHX6EG6YTrmONlbpBKzQkx77ifkOAkCxpnTo0OHTY5prATckLPO7s/RfBr6nkmi1KyoqvH16Eb7ULpbzmDQs1N5Yn0nI8QUULSicy51IXOfdf2SPxH/bsJzy/v37b4fZPg0zPFUfyY5HQT1D2oCNS1tQpGCRsDST8JH8NGR6TuFNZHQJ8mumssXiugubMBH3QpY/Qpk8zyUonspkCA0PXb8eOodQvPzjsddF8IkWlrYzWMdn6CMhnKBMhE8jpD5ZAX1agcn0OZztVijSz1GC95BLcLBRkPkoxsXs+pq6/MXiORg0aNAXUJ69sPSXgS8jV8+ayCkUMvaPoluIdyZ//bb8KhKm+cxaFKnox/M/TaAiYZFaozhXeFsko0ieuHBRKUVK4N8WyHd/LRoW6gV9UC1atGr6pP77eDvXfVGyhvliVEPDRkVaNahIRxxxRAUyuZJB/8ClLSrS3LooUgb8RtKeUaFe0SqxBAafVCuFtVrEONwB9uR6/drlbVSkVYOKxBa/zRpQpADQ2QQ6+2PdrsBhn61v6m0DxiAoFPnvgn9C0bqv9T9e6wqs49ujSOPYScwsoUgbfaTSijRPH0lnu4Qifcb0UkrGDu+L1D8IuV8F3TnKPTnyhijVYsblLrDTOr/kqUjdu3cfz2yYtVGRioOKxPa/LTL5ZYEi+aRWbYpUJ8AibQnNTtC6gfg86KZbMOkvmEUo0i1cd1H5YrV1Cwp3bZpYOmT4FMxvXNoAFYldW1smmMcF+QduWIIY/PkM9EQUqeXqKFICFEWFao+yXpWWPBXWv6xULBWX69/CS8de8UjZdQZ8KLNnz54nI5CnVSStUVSkKYQD6/29tA0InEw4202RySQG9z2UKdz9R15vI7cfY9FbZRRptS04bW3BxO4A/V/Tls+HrkgOue26DGKlrkHBDlhnfCgVqaqq6kQE8m9NqoqkVSKcyuzwv7ZP/Z+2Kol/gTC4lzOAvoEWJhsDvRC5/axv375ttVqWRdEc2DXiDkgL3Ld169a/9O8Yx0aF0ko56RkfP+R6DYrnq4P1/5LkmgAVCWd7NNr+lKZUH0lGEdQzpPVvrO/XrMvgV3s7dOjQgoH024YfqkQMohPO1xmvin+LBEVqCPBRHya532v9Fe3Pt20xjpNjtpDr37I0tlsTS2y9oJQigVPYLfTzONNY9FMN+CU7IaOJKJMP2qVNyZukXYQi7R6LNSjoaKO87Wn/VyjWq64grh4oc3LM58OPb2t29q56rNY4oCLhuJ1UqEho+hS0vF8y2Z92UJEYOP87849XHV9fiF7IAN4wePDgHtXV1bvga36NSfkt5PnNQuzdu/c3WB6/gT/1dWh9LYuHH374DmKXLl2+Sr7HoISXmHwe3DTRcil/5MiRu9LW0Sxzj6LMK+RHhXLJdekD9d1udMlrtKc3shZJJzKjSM/AWF/Neiz6qQWdbfzI5sjkFyiQX5UNA+ZuCgVYSujJAO7g5ojkzUWeNRB5eh7zbJF4QCarn1l4hfAV6nlG88vg88RfhFb4Ep1lSHudtNnSZ6WY0759+wW0vYQwWCQVKfFF2XANaqEuo1yzBrdQKhJafhLMemh0cLZlBKamwOBGRQK8l9atW7ddGRj//V/shNN6u4NKE48BC4OnpYo7q4BpGawNLWO9QrQdsTDd8o6TaDzxIh+OnbzoO0XD8Cz+3RlaxNidhgGfR0KRTqTxJ2VI5lAqheKurd9GRVoJLE//jTK1xU+ZwHJ2O/J6Avw71uH/sEj/D7/kH6T/0zjhXxNy/TfCvxP+H9bjH+A/RaxEwr+RN5n690PLF/fCC4NgeNEvxk2/L5YJL/ZheR7l+hGWr4fg6SHoPAg/Pvrj+SbBMqlIKNgU8k9lV5c7gr9BQEVCSMfT8L+yioRGT4ex/hsVaf0BfKhDUaxHXeq0XM2bNzecjn81dsCAAblPyjUIHHfccdth9k6l8SkqkqZWRcJE+qitX6b+1P9Fsr4AE9+T2h4F020Bx3EqS9tpDW6R/IsERQp/kcQ1NayxKNZ0TPIG+R34DRVYVdqxooQTQkWVSQPh0ob70rCKpEVi6zoGpZmmOYxa7Bo7g/W478Y/bdcfwNdqj+KEDxxHP9exnNG5c+ex3oKIxRoGfGab7f9Y1tbpNq73rzLBjDckN8gjFjdUQIkOQXEe1xBojeJObio+UsMvbZ4d17Nnz1Gso36oNGwnRZj5J4x1jMU2wnoArCrtMACPFSpSx44dTy+1/f+Mn73DZHkg83gK/rhr164/YnsqGp+EB/+TQjQdvCyFWCJfpbmC+v8PBsKtf5c3FQoz+S5r65+hdz54Fm2dy7VPA15A3XMJzzENPA+NzyFlzrcM6RcSvwDaF8DjhWxPL2TbewGW71zwHJH0c8k/n3oXEl5M2sWWtV7CSMe/IWz7Itq+BJzI9Y/Ju8z+JjTdfPyBC+jXOYQ/EGMffG5oIm1MJG08E6jfoEGDWg8dOnTzKNP1HhizQ5IiuazVqkhYjyYMip9CDj6N23UrqQQuSQlNT5icr4SmWSbVUXG898BSlrsz6s0ty8lMuilW2Ea6tpwzIGGib1uFadITrSuansqlMqandlPbiV7CVM4wSzfVyWJqz3K2k+jT51dVvoEDB/pg2nr/2hVj185dW/KP7GNRRRowYMCXWW78bvYLCt2CVnDg3WmVQvMlLipI01Qa49JIDSt06ZpvXrrTjZXwQ5+hXGorKVtCr1M70soqSMpP/KisKi59CXHrWMYw5YvZeLpObUg3KZ7tFNbN8pNt036brjJF6zsfa3X54MGDW0Qxr7dAP/3w3yP2WZmUVCQdJgR4etu2bV9V8A6EQjGuYLNoWhZNSwOb8hHsRzTifzavQ+sFhP0SzMwj/DANsuUcMJmj/HLW4XfB18h/lrZnkj8TerOIz6L8LNMJn6fsi5jalynrf09v07ZHyYSBl548yHviP6t0tpXS0oCj5Eup+w55r9DG0yjEY9D3aLi/0ZZ8zKWsx93kKZf0DaWd2kj0LUe4ABn8ml1N0S97rE+AXNrTt1VbpGOPPfbbDMqZCDW8yuJMS0IRjSfMpqUBS+nWBT3++xKXSgZjU3yOL4qVlZXNGOiLGRBPg8wNJvVWoBR/wsfYL1u+FPqvs468yCBthkX7BngECuCJa49D7x15gYfQD3lSweRTy+E1E+YjhPEkPJxLvb2pv7Vtw/Mm/gkppqPuoLEZvtYu5B9F/GaU5HnwY/tMe7lJ57XtGVfQtDkXi3slPBY91Xt9Avp2CHJ7JMnS/hGfiSKNw2f85Ax81vKdEcBZLDmvWjCrGIZeJ/Q6pSm0JMRUnvpvcj3ec1Aj+QDeb0BxzmYQ56QZ7MwlbTl1bmEQVlvgOLvbMeD9oX03k+Jd++LgqkDGW7Ro8RGK/DgDfFyfPn2Knm2/KsAx3w2a56lQCHSZ/UiySMrrBKG92Qj6Z0yg8Ln69Rno28H0c3Ic35wiIcfxeYrEDPw2hc9A+C86yApETApimLAOiuQ5s2cxu/NOx1CRTGcgZ1vO8rZF+eXU9/j6ilg0gPWrq6v3xnQeheN6GhbrJCzDyVilMcRPITwOH2Q/nNkajzHQwRZYuRuh+5Edtz0GeDFp91O3fSyWBx5RSFvtaOMY20IJbPcglTMWycHw4cO3UmHpwz+gHT7ULiZZRIv0horEhNoQfKSDGKuH43gFl4D4LOR0Vp4iHX300TuqSFikF7USSUGySpMwm5bKpXSFSUO+SjO+UJEYlG9rkVDWNyxnncjYMurWUCQsRkssyUTKvx4ZT/Rzlgx8Djoe8tk8Vgtg2yjaaHibonWQNybG0yjY9/EHd4jFAqAQ29HOUQz+/VjLd2hnWez7Mur6Dv2fqXeMvoDPD6VdmF9fY3KcTf7zrVq1Cjwli6QicT2bepfbj9DQegyFipQsUo2lLSlSRUXFC0nwSTEMHfSEKc94LYo0jpmdt7TZIMKdkBTJ8jJGuJyBvAPt3isWDYAP1Bzf5WL4eUPmHSCXKNE27YxIfBZOfd43Ur2HQyeroP+AfxjbJ9q8nrQ9YpEAkyZN+l9o9GTJ+38qqzxJW7/H9qxrOkq+2I0DSjeL+EwUZjq8Pc/kmAfNcKC2MkiKZHvwHCwSSr1BWCRk83Ac36RIM+jfma40sdjKpQ1BjMUi6UgGYSoQBSsqpITZNMuJKT02FHykYhaJPI8DzlMkcDk0bmPZ+U4sGqCqqqoNaT+Dn3nylGaDofVJ02JMoe5ZDGres810bksUbiT54TFf6qxAAX4Bvbwjh7Ey34aW/X7BfqAsQYlSGyqtyqEyec69AjTPeNOmTT3HKClN6I8yk05MCxZpQ/CRVCTGNKdIcYWYgbzG5SnSkCFDdkIAZ7q0KQSFokBUECsrPAmIKT/NWlGBW9YBJ99d2RmFd3ZdGkg/C4s023KJHrSCRercuXOeRYLBzRj8XSl7KGX8nGIP2uwCPz1osxd5RxDu7k4uVskBvlNb8m+DpxXySriUNq6m/s6xSACVGxpj4PkFy6k0hvT9VcrfCL+noYgD4XMIOAzeh3HtMjiAeoOhNx5+HqJ+9uXGoHCU1yL9dEPwkZDDweBkZSPGiR18JGUYi61c2hBicLYtpDAUisqicBWS6DWzP4QKS6WCYMhLdRiE+eAZNJJ7H8p/+rFQOzKTz/VDV9aRrsoKLofe7Qx80Y+E1hVsA8v6JdrtB80H6YtHIyfL8jHp16Jgu8biAfCXdsNKneugy79CcrbRr7uwJofdfPPNtd6VHjZs2Jb050z75KSw/4kGctygFIn+BUVSTvYVudZUpGOOOWZnhDCe2fZSUiQH2YoOhGFC85LSaIlElULlUICgX/8YV7j910eizDko4DxpS9dlh7LJR8pTJN8yUTFcdhnwpgza7scdd9xuWLrdBgwYsKtvV5iOcngfqDcKMRE+/g3dcI8HxQwKH3leyvWvKJP3yIM84feMhZ+XrSNPhqQ9hQU9FdgF3Fw+mAibUCXv0Rd43hYlOpslzp1qnkXi+nX8xJ/o68Xi6y0gF53tPItEWs1dG4PzLYQ+loHNWaSkSGK0NCFdpUkCi5qZy1OYCPEtZvR4NDXvlAsGZ0do+9mEudH0h3rQ87XhO1CG78WiARjInZnRp5LnFtvP3ixAGeZC53UU71XSvWvuNxRXJP5SJ+VDJTLdduBtCfWuZyufN6jeiKXemVjKYJGcFNJQCVkybe8JJsa94G3w0HfUqFF5b53C37foy0VYvhqKRLsbzK6Nvrm0PaJsHG9XIuI62/k+Ekvb1xGoX2UP95EUhuhgMItzgyIhrY6EVCjzDJMQHQgE+CaDOcFTbSP58NqN1oMyP0TIHrQZGJIeacsZ5FsQet4SQP3d8YvOg97rKkMqb910rfIYJuWxfZdeQ6/l07K0uRz8LfSaRfIBTj/99C2hMRDl/qeDL/2kUPbHbb3PJ0P/MfraMfsuns+co5itUMIr2fV5Qn+oI0+x3bnM2CssE6ust8D4hzvbykd5KyvC8Mx2niINHjz4GwhwDDPL8whziiQ6ICqPCKHFDPgUdiJ3YHFuQgEeJu1l8j5o2bLlYm8fIPCrsSbtaCDnX7gs0GhPBuheaC5R+aStwGnTT0n8kUHIsxYuYSjFuTDtOdNBma1jZxxo0UFLfKY8QwfUOl5bz5COP+lNTB8Bjk0EcFOgP0T5SSjF31GKF1Gg2Ww8POzzMeqeiwLu7d8lsUoA+u5ddL+n5XIa2rBdUaVCjrOpt0Hs2uijd7bzFIn4dDZI+Q//e8EA+F2/l9MApMFx0DHx7yOUexH4kOya6M4KX6g1itIF5emKGa/Qn4jZOWBm7gyty1Gct2VCBUiWDIF7Q/JmsGksHkBHGCX4AQP6sgOjQljHjlhPlD/TRWnKtxPBMCmb5VVYyuuLPYNCDyu8NZEFHWisiJ/lK1nGO9vQHIy1mpIcetuUP9H2wHn0+ypktEH81wYGHykpEtfTunTpMiZPkejs9gzGSRR63sERUyXjKNJ7rIe/Z3a1R8B1/haGg4Ez3IMBvJnGwyEFCDcMfFJYcCnpv8eShTOlE6CYu1LvHKzcK1rDxFcatMRfFk1L5USvtRAqVBxgv4mib3Ut1qmDj8/E5uoE+kjIoSv1fw/tefZBBbY/tqUSq/QqEulzEfSVONvr/dKG7NrRn0fsq312PJB3UCRXs1gszMJvIogzMO2vuZNyUHQ4szOa0Ec9FjAAj6NQnt0zBDyEGd4c5fg6At6e+C5YroNY9o7l+mfUfxzBvmnDClgmFHZGiUT//f9rVVXVCAZ2P5irgH4FFmkoSngng7RQZXCwVIakIMUwq0R2WkzLjfnOJHmhP/6/t4Cl85/wfC14MvweQd92p99+vPN/wS30qeDHL+CMpMzl0HgCxX4XKxloY6EDbenKm/Kyf7bB9QImw3VYr/X+MZKsIilH9YFwKktb/jPb7F6+hgDGIKDXFAZrfxCGd25VJIVkqJIpxDgY4ofU85mg+e5cQP+rWkwjy1UWBaxgpYmy5BQhKYVlopK681pC2Q9p8wPQT1AtTe3KvJ2wrDTTdVZximEqk2jIh864dKWlclvGa9peIv/0cR44hz7Op467wiWpL5a3rJPMPqQ2pK9cLGc/vQYXMqFuQNCrdX9sXQD6nFMk+6bs6PtU+nd6nkXSZCOcoQhzqgNvYQWmsNKMloiCM26eYRKoAkyDa12vLWs507xOaV7bhtepjUTbuIMtrUQztWmemNpOaN2Elk3odbaMfKkIti1d040rFPNVgGxfjBvqAzlxvE5KKK0ko4Tynepj2a0zBYs62q9mRjGvt4CsDgUfTXKMilRzaRNQJr+vXEUFH97yuSS3tB8jkGXgUgS0BMF+DJGPEe4S00kz3Q/XGddpXgouod4Syrl8BAE7aDbuQBoHfY7HMlqBj0Tj0PlYtF0Rmlo883wK0ofRbD/wIpJn2zmkTsJlCSm/jHruDANy7XEtPgO1VB6gY3/E8OE+hOXfHeEjf/TlA3j9gDKLsTgfYSnlIfBEWXlfCr3QX9JDfyg7mz7fhdnv78ZjQ3h/Dxkcylg+5njSv7QqTEdfSr+yTee/4ENfCKIJM3B3ZuoehK3wEb6H3/Bd4yx9zfEf2nC9l0heW8IKLFQFjbYm3GngwIEHg95Nnu0MRcjBguFXzMV3+MXRRx99uG3A3DegtRvpLfRRoLULtJqaRv6OXluONG9Q7oFf1tzQspYjrxllmouY2hZctyTeijKtRfmkbBv5tqztyKvotXQMrWd9Zpm3HZpwHdD2qbMrCrYLFmdnrndCgDubR392VUZc72EZ8r8FPT/ms8mGoEAJoiLlHrVlQqpIM5DVmSUVaU3B6NGjt6murj4VRZqqBjOLwxLCMuCbtgM3HiKx/gBKcyBWerKKRDz5ls+hSOewK90xFmsY8Hwkdl+noDjP6KRrkWRCk4iGD954qu36A1GRwlska0WRWIZOpMF/40sEixRN4zSY8TNbG4/+W0+gUJE0CsSfwxX4QYMr0rBhw7bp0aPHCVikJ11TXVtd2mBkKmkbD9paj2CdVCQYmMqupv/GU23XH4iKFJzttaJI7F5OzCoSvpHO9jQc8AEbFWn9ARUJXDuKpI/ENn801ucpFUkHTUbAaRuXtvULsEY+/B/uI6lIjiVG4VkU6exBgwZ98oRkQ4CK1KdPnxNRpPAJCRuXCZiaBhMbne31CFCgAxi7PB+JsHEskie2oUgnt2vX7umsIoHheGQUqexPEqh8J5xwwpdGjBix/dChQ7/KbNjedrwrb+izRqaZn9C0k08+eTsxlRW9zyWma/MsY53jjz/+K+WgdU455ZSA8BjoJPQ64dixY78iWu6MM87Y4dRTT/1qFk1LmE33Hbpy0DojR478qrz5FwYyaEK7dX5qoxCiIoWlDUMQ7mwTzurYseNZffv2/eRR24YAB6ZXr15jUJrc0X8yAUP/xiL1jMXqBNdee+0XKisr90QpL8Zh/z9wJp16FvSQh+nQnR7DGYQzYno6iGIG/tn0DE4TyZsqkm881KfedGmDM0APTa0TUs92bUsM/IgF7YryMoO8UB58NovQmSVCM4szkVdA+2VbpRAagS7xgLgQ9uP5vffe24f0nmEMrmHwq5yEUbR1AtrOW9qiRZpx5JFHNvyd7ahIpzP44c62jSNE0e+19YrF6gT4Wjsj/PFNmjR5YY899ggKiZCSz5VDhJZD2sihnbeOYUKvE6b62fwsrbqg/Ii2l9Ky8VJ8lsIs/6vCYvXF1D/l7pMcrVu3XnT44YffgCIdEEVbJ0AewdmWprJxLKE7rVOnTmMZm4b9U1pFopFwGGlSJG9KMiuegomqWKxO4MkgXbp08b88v21yE53xZb2/Ev6VgfkbGOKkPRHRU0k8YUx83LII8wnSHiXuqRqPmk+a6K3/B7i+TyTvftLuh8/7sgjv99eG0gAnU/dxrlN7PqobELqJtyco9ziY0uVV/v9G3D54nfh8BDpZ9LXpPKStkgjfLkce9P4v8CHkdxmD353d9NeiaOsEyHB/eMo9RhKXtmlYpDENrkjpeGSYD1+QpGNhZtA5n3HuEYuVDf4Zik+ymb6S6GOvtLV1Ql+DSui/7+aLlvUxWvyhLUTjPvyPP7E58S/iw4SjbAiNh+ssTpw4cZPaEH9oU2kVtmkbic/C9IRjxozZSkzptLfFxRdfvHnCdE24WcJLL71009rQMtaB7pf1G/utxnfXsLQHopC5x0h0VRjPaSyTY1h1GnZpk3kUaTwzIXzTVkWSCRUJ7B6LbYT1ABg3X9l+zGUUyxQUCaMQLFKN55HWNGiRqqurzzzssMNmoDhZi+TSVm+LtBEaH1CeYJGSIsWlrXG+RaIisf0fhyLNLFCkpwk3nrO9HsEhhxyyP8vaI0mR4p/wtR6PvMYgLm1n4SM9m3ZsLm0wsFo+0kZofDj44IPRo08UKS5tjWORVKSqqqpxKNLMpEgygSL53f+ytv84jp/t3LnzV7BunZkFnrf9m65du95K2q3EbxO97tatm+HtpHu6yR2k3+414Z2i8e7duwck7kuet1PnVq5v6dGjx83gTSLXN1G+zggd6/4BlJbt/Ym0P0H7TtLuIO1O0Ou7EpJ+F7unuyorKwN6bbrlpMH1LeQHnri+mTzpp+uSGMsEXqhzJ7TvYBxu5Poq8kcS7qI8o2jrBCiRFmkymHO2Gc/G8ZHc/tOB01CkKa6pmaVtKmFZ//4j0CbMhrNbtmz5iq9R2xGVM91WEF0+xcJr283Gs5jSs5jql4vZulm+CttL6YXlRfuV6hbyU6yvq0Llbbs+WNisWTNfP5/D5ucSxqasgy3wj/Zh8j9MGGjGpW0mitTwNyT79++/HTPgFBTgGRu2Y2ozjPhN27I+144ibcs63QdB34JAPfDhI+h6HM5SkfgSZosvJ/iy5VLjCU1LSPsBM+UCEl8W0WuP/gvxVWGqL0qTcIm8sF32VarEV145kbrytSTyssRr0kPd1Jcsr9Yx3XLF0PIi8cBXLGtd++FLGB9DaxGy/xsW/XgPz4iirRNAD1Kf/EWiMhOfhSI1/F8k/mmLaQ3ftI2mMCmS37Qd6LF7sWidoFevXv/jSwkIIryMIHZa+XJmU/Hwww9vhrI1FZl1lgkvLqTrwjh87S4aRxmbwZPf32+JBW3hyw2l0HzLifJAWmtD06UjH1meEsq3aLrlRPkxL9FOZaUVaYaXFIwTtlwVWi6WraCt1sjbI6l96XNXX1ZgYu/A4HuGQVkvJhRTJK5nIn9PL15rilS2RdoIaxeYZAzZ/rmP2qwzikTaYO8ix6IbYR2HtWqR9JHYIZwME0+nh/9lgnAqaUP8WyIW3QjrOGiRChWJeOP4SCoSW+DTYGJqcra1SjAxhXDwxqVt/QEtEooT3mvLWKRnUaQJvXv3btgnJKNFOg0mpkUNDsiu62WYGO3tgVh0I6zDoAuC8vRgDP+VHpXxVgSGIWz/G9wi+Q892/bu7Bj+jAVa5tKmIrFLWga+BEN3wuBE8s4h/fy6IAp4QUKuz8PaWfdsrs8iHC9Cczw0zzIt4oSE5Pk9OstPiOXHQcMygQfiF6D4tnUe5c5PSP65CbnOy7OeSJuejpt4GScaB237LMqOiyh/E0TzuM7xlFCZkCbNC8ELiJ9Hum2fTxsehxiu5VM0npA+hHTi54DST+2uEqE7Dn/2zIqKinEoyljG7mzG6veM1XPQXcIuM4xhy5Ytl1PGm6gdfdIgDnmDwWfY0vq1o0oYuAfGPlCZYChotSEdDYwZryta3nrF0LyEKESdMNFMmK6zbdYFU/1ibRRiKfrZ/FKY7Wthn8UsvcK8VaFtOzbSdawM27dvHxCFTkcafYBy3V1ZWdljVGO+Le3bIvhKfmTm9IMPPvgeGJ4FUwth9ENCT/UIJ5yUg9ZJyHU4BSSDNcpjigMWpIdTRLK0QE8+WRUW0glIf7InqSTaOfqUKcpf4i3Ln+Wh5Qd5ckhaMV4CmlcCEz85pHytiKIEXgg9bcVTVmzDw8VmMl53YRxOxRLtvtYPyejTp89Xu3TpsieWqjNLXy+ctd69evWqMqwLsCb3xv/qU11d3cdL6PUnHCBWVVX1g2bf2tA6InHL9jMurX79+lVBu5dIWkmU10IkPfAFL9WEfUnrL8qPWaLxdF3AR19md7XIAPUVSbNvvaBHNECviEXBsgmtQ38qY93eYGgDfqoTwkefhLFMb+PUtx+9lAfQn3Rl1Iu8fWv3af/rv/4/ZURTo49w1GMAAAAASUVORK5CYII=;" vertex="1" parent="1">
          <mxGeometry x="60.879999999999995" y="369" width="78.69" height="90" as="geometry" />
        </mxCell>
        <mxCell id="JH7_bKmLKvwizB0ivAQK-4" value="" style="shape=image;verticalLabelPosition=bottom;labelBackgroundColor=default;verticalAlign=top;aspect=fixed;imageAspect=0;image=data:image/png,iVBORw0KGgoAAAANSUhEUgAAAJYAAACrCAYAAAHz4lUHAAAAAXNSR0IArs4c6QAAAARnQU1BAACxjwv8YQUAAAAJcEhZcwAAFxEAABcRAcom8z8AAFH9SURBVHhe7Z0HmFbF1YBNT0x+NYmaxF5iRIRdFqwoNkR6W5oUEaQLimJDxWgsQcESu1iisSSKJSqIggpGY6omMbFEpBe7RulI8X/fYebLt8u3y+6yu+6SPc9znulnzpw5c2bm3rlzt6pSOOqooz4//PDDM3jYYYetBz8/5JBDPm/WrNnnRxxxxOfHHnvs561atfpGLFIytGzZ8sroLREOPvjgz4855pjPY7BkOO64466I3hKhadOmgdAmCbZo0WJ89JYIRx55ZIaIYsH50oZQMaCZ10RviZA4SxAJbgxt2rTZpMxSZ8ihfmVoZ8Xk/0JZmpkLJBg8dHXzAw444KS8vLy+dMArBx100NmwPpxaT6fGs3HPbt68+ah27do1DwVygOoTPMrgiiuu+L8BAwbsJ/sFBQWfxPgV1gh8mZ67yyaFAjmgCLGBAwfur0K2b98+z7ijjz46JPbp0+d4iH8+ePDgQisyLhdkOkWq/fr1a0zzPqc390hxun379u1w6KGHOhKC9huXCzIdYMZTTjnlGyNHjtyO2hfRCd/u0qXL/r17994FAv+g+d8zX2lKmmlm48aNQ1fbNGVkl8t2Gqf6JWRzQ4EckGlmNnTq1OnO6C0XKIro/S+gJpscm7kgJ2etW7cep4usVtDc5TRvKc1dgkzEpcQvI/ypcYhmCerS3fw5exqlvTp6ywU5hxNj8wZdhH0fo+K+Jk2aPIz7IOF78d8lEp4IPmIcqtTY/JnezAYSb4zeckFOYsisQr154IEHbkwMoX+HHt0Wxd0RO7+DfhGV+b7hzp0775jiEMkPGX4/6Nq1a1DqqgPG5iOOP7s5aT64XlelNN7RQZ67YpGSgaG0JnpLBIh1g1gzKr4tRuUGiK2N3hIBubXXZTwfjcLeFCJzQc4hUQwQfGH0OhccSZlbYrAo5BysxYBmdo3eAMjxCOS7cZPLwtnxxx9/jB1hR9lJdgjzg+WKzp1wtj56ywVnnHHGty+88MKvhwA1nLz//vufrDFkzI2Ew0G4wxkiZxB3MZyMQeDDQuYccNJJJ/2fVnorNZrJot6UKVO+AWePyXb37t0bjBgxIt/xhgm6ZObMmd/QP3z48O/H8kVAYsOGDfvuVgyFHbT1Zsb/Lbhal5+f/xpqspi4pSeffPJ3rKBDhw6njh8//tuxfBGg/DbdunXbdism1u179Oixn/afae3bNGklTZoLoWUo5kcnnnjidlbk3IBsdozli4AVyog2//sM1v0LCwv3McGeCjkAOdLt1avXd5Hhx6eeeuoPQkIxsJnOblshr60VvAXFNAZT16c0w7HsRgCNbeHuhzG4ARIn5YVzzjln26FDhxYVAcKvkJ4pM2T7zRjcAIy1zECHy2V0ykpwGerxKRUto9nOTgGJX0r+ZeZVaYPMsoEeWxe95YKMnmVD9tjEpt+DijhDPQA6O/0qzk4PEZ6I+5sGDRr8xrxnnXXW/23UAWWxGrlAXdyIM2rbpHHMBchrG5yNV9zOOo4KZ6Ls2SmF6ZjtUh7HNeHtDcfipQO91qZt27aXM0rGMj6v0E3YsWPHsRC9RiTPVaJ5wMtF0sfFMj9jPh4aSW4+MM7XQfDaGKwwwGAn7YgDDKN8fYyuOMDYGhZYYbW2OUDjOiWlQ3uba0bAX6I7XwsZyguOelpYob1PNrBGK9SyxmAArO1R6NPnjRo1mhCjcm8Lc4GtxFpsNmMszbpmj/lsgLGmzrkwfl2M2jRIjG6o0Fo5G7D6PdQxppq9YXJPRuQuIoNmN5Hd1M5Mbue5Z0GSt8ZiJYMSoxs2uScuK7DJDN01ceLEr0yYMOFrCV1UuAF99dVXv+70lVlklAQY90plbFPgJKIwZDZEuOR26pdbRe6EmyZemUsTsa4jSp2wmy2jCUhl9NNVmQ2uUggVlBGckCx7wgknbFgYsQj8gRW5N2AR83X0ajiV7WsalU2XObuhfv36X6fic1kFhBYZTwsf1Y+t6oKB7aCfMm/aECcrw2UFF1HyEaeSsOf9vpyyoNqVxGYmWilMfBtGdyPtM/PBxJtKhnB4QIH0liDtDk4j7phEpRbzqCs5F14lgYsLy2XWBDJmC2l1Q0bIQSYyVYfhzag5kLSwioGR5+xKGPmXYRhdxZRzPAx80/wYzM+nTp36bfQyPLO49tprN7S8jCBj8pFhzLWshOiK86ioG4x2h4EhMLgEyx/0SykSNwI9aE43n25+45UQ0v0rK8pjmRMLiZ+rzinxu+++O+e6tySwKxUKqrJ9jNpqK7rsO2CTLl26FIAHUFETumQ9jP6a1fsh6OHBxB3Ws2fPw1mbHIKCHtq/f//DdUk/Qtd00poMGjTowJLWz6WBi04bPGDAgJzL5QyYCUMYnh9UB8iYPVNEYrmA7ljHSL0qBqsckvJrz2JUbmD+Wlv8oS8D5Fl0cDo4A/wd+BRdOQ09ncZAmYZ/BrubF1n4PQfOAKcT/zQqMQ0dfIbw49B4kvAzqMVfHFyRdDCwSixjYEsCM1XGeqysoN1TYhst1IuDjKVnVAmQ4mzi3TDOxZ2N6y70bUZowgXEz3d0iqiDaPxC8i0ibjG4gLhZ5FuIDneOpDOMMXh+FKNyAwvFSlldlBWSHbvqqqu+FaNyA5b/dG2SDLrQ0zbpJjReo5rSDDuSs/OVFJ/SUrph84CfxuprGdD32zD1XMhs4E7oCkZSZnckuiPCvZq0zA6JEedOyh2SO6UrGLHulMYysjf/gaEzgNOMSmh/i2nZk9A0B4Z+XcN2ifOocclNyyZXLJF8xYBKGllJDG4W5Ofnr1Bn1EGk/w0m+nKtzTKA8uXZuhjcLEDCqxjNF7DReE/JGed6LiSWB2TK1sXgZgFrsuXYvp/qZyk0XzXIy8tziikfY3RdfmVJqnHjxj4cOj8G3Zq9jSlYp97GqLIBSnqQ9iMGNwuQ+Aq67ecxGKCgoGCR9NGvrxIsm8QgclhldR+SWsnAuSQGM0AXvp9Vx6YZk6nK6j50aiXq8LMYLAINGjSY5yj3oWyMKhnICE+VwxR0ViKRnEwJmIy3keR6dOwrMSo3yJQGMQY3Cxhxq7Hod2HZ92AU7o7V/xHWf2eW4Dux5N7BjQhMh5c14VF0SYA1P6CyJMVoW6J9ShY+bdlkwucPPsVB70I6Xf1WLLYxwHlBZTElzJgx46vJYLrafOmllwJOnDjRZxCmfRlGJ8HUrFAgF1SmnSorIKnHsV8lS4oMjd0dx2C1AHVOyjClctHXgxo2bNiPKeBkJs6h9PWv7HP8IzB0IxDtKLr0VMJDzEP4HJT3YtzzkehZ6MX5xJ8DnVMIj0jPJ8oD0JpG2dkhQGWvultW4ZyXVDgZMmy83ciEGp7IGO/TGOPiQ7IQn+0aj7X+SyBeDohMzQkBlhPv0VUf3Hnnnd/0NdTtt9/+fz0AmF3raBGbN29+ecgMMKQvSEyRtoztfoHxI0eOPIoyK2Sc9NdD5nIA9J6m3AZJIZH3Yeo9/UhkFC0+hWH7Vdc9MkQ4PB4iX0v8x+mn7yeY5v7NxRsNu9h5LD2XQlJ/N195gIY/S7kNkqKitwm8rx+d+dhuwOC9bJiWr6e7GvTr129Xu9XulQl05nAkEl4y04C/WIb0uZ4yoRvUxXIzBY3pNHZuCEB0FkwEpnCXaNyo8G+GIb6GdfiP+/btu7eSUQqsybdnW3Qw4eXmgYm31D2Z9smgeWjMa6aVB+i+JxHOBjtF69+i8o/0M9J8CSZTQVJKg67Ze8iQIfVxgyXG3YZwPq0KTCHJRcbDSECZQx3KzRQ0nqTchu6zpQT+ox93Oaj4HzaM4q2nBXnM4jtaIS0J3Tdw4MDOhNPTwAeUEO79hmWqIjqFMJ6ioRsUHUnZfYEpBt0eJ5xwwk/0Y79+bFeSMVRwyimn7DBq1Khd9UPgZUdgy5Ytw3bbLtZlZDaOiv6G4fIAjZ+aYQpJLaJ1KyFcyD6tO93TDX25wxbTnWECJfPfmOU7wWhnCv/b7ooSUY9OZMZvgXuuUlb3cINOlgegOwN1WRACEJ9kxVYSlTwoq/6oX8HvyEv5rFjXOLvV+ISWhelHAvFyALr5PLQ2MCX42JHWFqAvTbp3734g/pPoUg8O5OM/AJ1q6iPGnj17Hor/YPw+hvRx42G9evU6onfv3ofQ9U0HDBiQh1loGsmWCxjBz6MS82NwY4Drw5RCDFYLbJIpuiBffYnBagGZot55MbgxwFBedTPFQNEklL7Iq26mNJ4Zk5ALGAUFjqoYDICpuJbR5YE9D+etgPFl+tG/JejfpyKtXcqoXEpacEVGsFPXEoa8+ZZQdpl5SSvSVeSbXCpTJDqNFGGqsLCwPcbRJ8U+Mf4d4WfAaYzcpxiV0xi5TxN+gTy/M1/E6T4txr49jZ2bAk4Cp5J3OnnDrJEAZicx4kvuPmzTAdqnGKwWiN1X8uhD3Ic7jcRgtQBd/0zGoucC+rxZcabosnZM1PfQmvuYRu5hCnoQ/wO6hB9k7+bhlnDsMiHd8WvwQZG8D5HnYeLvZRD9GgbuiKQDbJIpEpsVV3R2tZcTNwslDs/LcReirIuZckSfm+tmnqeDc8izSITeIhq5OLpz6SrTiixvWNk+TfrCGNwYkJQnCKu7+16gISVLCp36IhT9CdRgwyIvF7CBaOhKIAarBZhm/gBTJZsEzx2gtGvIFJYm9H94n6yVT6gk7WLtmXmMK54nxVs+O94ylk3+lA/bdXRkoWRA+cJZKrpzOxaBP8B6hxPAIor/3ZSe8qS0hLT+eyktoacApCWaB+a+h3H9Hsugoqfr6qAKAenv2ahRo6lIf72L1KQuqko2qi6l4abyqLqbQmmoziL22ZNaNzDlhrMdTLOlP7WsakCFf0xD/KpAZt9k8jicxcnRmt2EWB7PqB2H2zIXYnRa4TZH/XGOam4Z8h8T/S2IP5YFjSelj8Pfyjgx0cTfOmIbhtPh5L0Cmp8pYNKDACkX3vP6ZKTCb4U2FzAwLk/XyBi70mp7v1saYGPaNGzYcCkCkqc30LLZ+jWU8HlL5mxLdQOCcoOxxt6Dsc0+A1gZgGZ3Q8t99aI5CO+E8B/doEGDt9HGMFwR4C9D5uoEhYV2Bc1iSFbo66LKBoZhdzpvtR2IcC6K0QH22GOPg/Py8t5myIanEqRP8Fm0aRV6N1oeQEgHgutkDGEVebP3RQHTfkd4Wu6wQ9tzvq7STubn57teVtPWo2l3MFR9A1l1QA8dqlorLGaeaju/WRpg5AvRdl82+uyq1A5EYEcxay6io9Msmj7++VKlaxpqjKw2CAtbUSNsFtpUyBImCeviGF0qsOI+AFzIgjatjCegaZW7AIUh5LRhHUVFNUKz4KMr675VGnPw0hhdJmD4HkHZBdozBL6O8M2Vtj5TWBAMwkKVq+0wXWnA0sHZcJX7JrSjiIEvK6CRx+6///4zFZrtg97taSKoMNBzBzkMRQxrjdAsBNQNO+RJINdWy+nI2QhuNpriO6C3cN8AXyfPG9ismbizGXqv4s5kpvwnmvUmy4zXsMeLMS1hfeY6TYWgnWNjNeUHCIbHk/YiPVptB1tLgxNOOOH78HU+ArkP3u6Ht/sQxK/B+7BL9+Lej9D8Nmsi2vMgWnQ/ArofgT2AkB5CKA8itAfMj/+X9erVuwcN+0CFIDxzk2dWSwKkHk4RiAzDGiGsyob43WR4i4RAZ7NdqtgJP4WVZbM2+7unmghMGArrMScMtHVmhYWFgJq4GlZY7dq1q7DNyl7TVPlKupwwePDgrdGqx13AMqTfLPJMyyd9COE0xvdyxnJYdzB+w6LNAgpHFymHXb0G0DTKhPOecfYI5UQFaR79scKQT7U2bJpx0rCs9C1vnGF71LD1mTelEV6OnTwlsl1l4HkM2jnVumnLnHQPRgAk90Ma/l4UwlqYe43G/ZHwX8gs/hFG/4HR8zF6WPylKdbGi6zmQyMVEDQWUP4p3Ecp+yxlFil801lAhrxJ8MYpCGguprNm4D5FmT+AHysk052hrEth05mveGomsl4lEIU1zXbCx+wiwmI9sQMNCPsmGH8ff85P0hP4ARSM+wxpbdIChLS6U6dOI0sbUmjFSeRdbhkRRlYTd3JM3gg8bt+hQ4frklaSX/z7Jj/12ExQWHTQM1FYc5xtY1Kw/t5WEU4q07vvd+7cOZyeYCV7uKqvMEQ0ZTVDZmQoBLDO6qnGRM3qGKNd4J0HnbVqg5pGpZmFYr9+/YbAQNiIt23bNtDy4RxG9SwFGMushl5muKHFg63feuDhHzfccEP5zgaXE/yUCmE9m4SFDfvvt9GeEoKhuTKDcD5EQ8KxFIZnE5j80CFnQxw64MvpaByN3YthsRaVXda/f/+9jOvVq1dDKvLrkmBvFArpSzt27Lid6WhFExrsl/Mr6bFwowX1+FLhbfdpDkltmHUitKXU9wE0/Oo+CJLwP8eOHVv0c/NKBjWLzgrDEB5muZSISRuEBYNvKSxU/qMePXokYR1C5k+KGeZ/Ew6fYhUWFu4D856y0/DubRwC2A8ac7RH5o/l/mMdpnt0i0Z/Aq5g+IfvIu05hOEnPZkyqU4FZ5zCj0Px1csuu2wHy1UV+NUN/DxlnbR/9umnn/7fbQ+a9H0aF4QFM+8jhKAlw4YNa0LYAwKBWRpsz77u1Go69qQ+w3AtjfmMhocDTwjrJ2jWW2qIAtMFlyRh0WsFaOnHxC1D29oYp9pj+Gdaj9pjOXhZ3b59+3/C9O+h96aCUmiUe2X06NFVqllRWE86mqhvdpHH0lGz/OBKm/AxatfAeL8NpcBihsdKNOcT8jzj1VKhEICdu1Zh2EDw+Bjt259joPUyjVyFOntoq2VM8hHwOdThMTg1ZUyM1s7tRZkXcD2p8Rw0gvAFZurbrUPm6el/IaxSJ6DNhbR0iPIoKiw1S2GpWTDzvsfpYtJG4GoW4TZGw57XuCOMYF+0TdD4DTRyDhG0cTfSHod+GF6WgxGH/YSkdcWBDqpPvpedDdU6kc75FzxU6VVJcTbMrLOK2CyY2gFGwjOdZDPAcMeffiWsazj1sA2N2hHSjNNvXvNAbx35feOyzjiFaXrKJy0b75DLou85IK9MWS8Ny5jP9NQpbHj/yvKkSt8HakMZTc9bL7iQYVn0G0u061CY95jWYnr/HXAxzHqG4x2R+Hdh9h2YdyYLZ7pp+GrCi2jce+Q1z3s08gPiPoDW+8R/SJ73yW/6e8S/D35I+EPTyPs+8fo/Iv9HWXk/oP4PSH8H9AzJu6R/QL7njz/++HAHXlWC3xQz9D0Gaccv2EhYZQW0opF2yqHB8Cn7NRW1CLKFRUfN3+QX4iUBvesMqW3zgoCbY/QWBd7ChbB+HzVrfkmXbG0S0KrwiEZhMa5rxJPSygY/u8bMeEwsrLMqvL1iBmyIsNYpLCaGLfLhX1qUMoo2T1gU9vX9WoXFQrLEsw4+A0KVd6WHdkuuSJk9RGbSnT0Thf9HDOddWeDuZFj0jBTpPzDNstjJPVL5hOTbXTr6WRAHWpYTs/2U/aGf4JlPWpZhdOzicslHU5HdIqBwmKWfUFjM+u4NwyK83IBqNkJQYSNMxSW+N4QhXxiEJUY2OjkoaFE1N4/+lO7EIe3svGnYGy6O5ks2NNGQbqIhvUTDOMtYp/Fs9nM+6VVYCPkJZm5pzL722msrdrCEChtTedKsir/5qMGgsBiGk6JmzarwY2V6iI7bsPBsXY2XcFQnaOAxA0+rWbRzQYWXDqinX6EFlcY2bPLGNx8GRvxyejComy7Iwh4UuTAr2035SwPyfMWPXC1THN3T6caPY63/y9opy8TiOUFhsWMID/9oa8UXpRTO3AiF4Szxpp6GDRv+Re1TlRFw2Na4vTGsm9B4t0CiYfOKya9bvExxtGx2HWI2HdOloavNcuuEvVJrch4iSUuHzRYW6tksqqealW7CywnnnXfezvTsLtiA3ROyOt7NuPPPP39v3J+A9c4999z6YL0xY8bspz+69Ujb65JLLtlz9OjRe5F/92yUjjhq1KifsIjcT5dG7oN/X5FwPdG4M888c2/y7mF+yu45bty4vcePH1/inU9JWAqXti5AQyv2/AzD7tLBAxQa+M2/eLEGgk8dWHA/7SSGsOa5sY5J5QNmiSao9DrVuiw2qzaC6yra97iahVJU/I00m+fdsA3e0qQN+IwemI4NeAx8giE6iYXfY2jck6zuZ4DPMmM+UxxJf5Zyk8yP+5RlpIE7BXcy8Q/jf1g6pE8DJzMsnkxInqcsF3EScb+VFq74CPh4FsrTFHh5CnxahO5UcBoYeIm8ToHGZJcM0H9J24bfx1C/i02vGPhMmhX3UIT1OvgxvfARxvRj/RjUTxDmp1Tid2g5kXx+p/YJzHxsOfx+D/4fXVF6KU6kjGk+qU0YvoUTKa9rnb4rCEiZT6DxKfgJdYX81kt8yp9B8vxHxJCHehDuRwy9j+HfC882/blHHdRBHdQKwGjWY4yfjIEci9HOXLnGBBAuoE7h4thxwxVt48gXLq7GH65n02WRG65oE4m70rzSykbiwqXW+gsLC8dT9886d+7sVW9ecn1YZK9mALv1r2E0BzZu3Pg/rkOcNXRFV/UJnS1Lw+J53BVkh1PcptAnC+npAuG3MNDhLzlM95nt1RcGzBLtYWwFTGW2EKL+7HB2XDbGLYSu1zqFq51Smn7jUp4kUNOy6SbazGbBhaewhYk03mM5cYy8fuFfhcHUbT4PskFo0wVMxUW+Cov+FgzRnF+E0VDxuJQfOEYXOscmNC76W+E3b+arMOPwhy/CqMv41tB9TeEqWIWGps1n3XSI/LpRD4x/EYCAfitTML3o+OOPz7yd/iIBYT3rUISnIDA1D62cjcCOjFkcjtU/JGHq4ThMFmBYw2v+LxoQzCTfjjP8PkMTZyg4XDX/bQT5xRn9JCx6cH72uYcvEhCIF4uoUe8OGTJkZwTnTQPhkQ0T0LsI7fCYtXrPr2Zp1ryuXbvWj9FfKGC3fidPaNh/6tev/x1P5TRo0OC2NDQR1jukVb+GMRPWRGE9rWAw7guZAcPjFA9z7L///rekWROh+aFmmiU37+baskJNFBYC8dIheXoXLPKjgH322ec201zqwPc7uMnoVz2kYQgDNUZYaMwUlzNoz/ziwsLof5sheSvxwYZhz+a4NInJVQsYzMxDMYQVfhnxRQNC8NoEhfEe26AiwhIcmgUFBXcqUIckbfB0ToXu8yoXYCwnKSzc+eznasw6C37swA+TzSoO2imEdbv5XPE3atTI41DhV4kRKn+WpFeesHdqkrBo9HQXo9iuD9loh1PRucAhqdF3OGr4sb+e/Qo2zL1kyFSZgLCeVFg1zMA/6zCEr/cx4KW+XIDnb7G8uF1haXsRsh9LHGxapQsMYU2Jw3Ae9qGmGPjpDi8a/d6mhJUAgd1E/nAQGKO/CKN/REyqPGDchyPPNWkYolHP0YlhaYBbpj/meF3zfvvtd0NaVjAk57Zr1y6z0q8UYOkwpaYtHeDnubh08CuNMv8wx9f7GPqbk9FniTGnUgWmsBzvjPWFCKthjP5CQWFF+/M2AivRwOcC7NTWLCtuVdg+3kEJFkKjcgSmzappwkIrfudwQmDvohnlPng2YcKErdGqGxDYGp9WQMtT2UfF5IoDhIKBh9hCpukaISxm5hddOmB7ljDpHMFQ3DMhwtuNuJ3atm27c6tWrXbR7dy58y4inb2zF/IPHDhwl9tvv32nli1bzlMRRNrnPdebJzAITFZYEJxfUx7+wdPzDJ1gqF0KEPby5VkY7beY6d7E/wbuGwy3N/Pz82cxOrw2ymsL/g3+Ky8vzysLXkNY4SINh7RrMWmgaRVvI5o1OQ7DGiMsGuTVA6GRouvA2KEBFWRC08zjUwrDCkVbZX4E6voxPDg0j37a2ztWU36g1x6PRGqMsBhezeHHP5U+QKN/jbZ4/aj3OnhdqX+IfwCciH8iaQ+S9zcI637yTETID9GmiWiWdzrcw/rrZoe1wnNo4x8Uqyk/oMKPRanXmKVDAk/1xZN9mRuLdJnxvppOF3pKMPmJ/3o6NUg+r7sLV0TRrg4I8DO1EnewcRUCeuRRheUwrCmPlSsbWGx3REhrHLKVIixUtsZpVmUBM2UHhu1a2rh5wzAJqyYOw8oCbGB7BLWGNjoRbJbNmiQR1HOLHYadOnXqiGaFew03S7MYx2GdBZEFfjweoysM1fpqqozAYrs9yuBlILltFkbNv2X0RBDDUcGBTKH9Ecxg1PAUptcBTMODiR9BnvmuTci3im3G1aSPJn0g0/CZDM8zKXOqFZBnJPmHkDaMWeVkyxJ3tnlYWY+Bjq/+zyTuYtwxlmd9MxocA43zTIP+SOgPg97J1NevV69eu0d2qxTQLG+nDMKC91Nj9AaQCSJfYn+UOZXiAo0CYdEWbVRYd9AIpZ1Z9DEsQ7p5jTdsXsNRjcMJF/3S0jVNtA7pWd54y0oz1SUfhvVLg3y/p1Mr9rVDOaCYsE6P0RugdevWZ7gCPu6440KDnDL1KxAfXVjIeF0b5rbCRthQV782RtTPliGkWc4480jLVbECkob0DUs/1SH9JDjp69dNgpSGLuXDXRBVCQzDHvAavu2mLaNi9AZgqrzSBBHt8O9Nf6KX/0LGvzI8/oj7MvFv0KiPbbANs5Eyr2BsfBIO+ZajBZbz0p7J4N+hZVwQpAKwHulYJmrTSjrr78R5PcA04mZCy/siQl1iFJRuz8h2lUG2sODhtBi9AdiVj7cnZZyGj3vggQe+5VcG4pQpU/z+5Tve0oFBP5LG/hRCCxRSGoo2xiGDoF5kV9/Zr6oi6a28CqV3796d0d7n1V7rUbiWQaAK7PdM1V2pI3NdwSWXXLJrjx49hsHsawrJMtKXeTSy4ovEMgLDsCf15hYWmvVze9pGwFTmJ5olAY0rIO+bCssy2ioa/4c+ffpkLq4oDuwj/VDyORlIwqXhfyJ+p5hlIxg0aFBT+JplPWqZPFK24hvbMgJLooywUIaiw7Bbt25XqlUyhRt+gwp8CaEcjqacwew1irSONDZzuxAa0ZoGfGYZNORTeqN1TPK86a7Yr2GWg0bmuxfy7A39ZZZBWGvppFYxKfzHql27dmPIfyb87BajvUnpTIeEnaKWIeATYlKVAYvt3tZpfQir6GzoQVZ7zSHFzjxc3+TmkvBdFlDCuuCfsTvhuijvgyHv7+1x0l8kf7gAzHQE8m+HmGm4M2lwWI/5KTAC+Zv2C2HPMWz8SSed5Gz8uvWrcXTK3xB2+OLdYUyc12IGzSKtj/FVCXRib9qahmHmCqwATMdjHUr2OBnCH1rdhcPgNTIoow4dC8N45ufgxN9rOr39UIzy2dLpCkNazmBRY88yzV09df3SMgjtj6EAwFAc5LJFYTkBKOju3btPQJhNhg8f7t/0XrV+eaTOXrFYlYGaRV1Bs8CiwmKoXWQD1AQyjXdV7QeN9O4NSVCmKwTSu8Rivha71bUSY/z2GOW3PVcqqCwtsYHh82A7gLpuNB732VAAgDkXpmHpYZqzJLysRdAfQv8jOiD83FHBw8uAWKzKgPZ0R0hhnYVb9OY4ZqrwR0mFhRvuJvYjahqQGYZJYOTJ9CzxtyhAbNN9MUrj7787Q36FJk3oXGaaz5oQ5gTjqPPJUACgzGg6IZxSRjBBYGqYHaXgFGTig7zDYrEqAzqvK20IwoKnITF6A7j9SMzQe+FiCx+Oweit9qgNjwUV2NBQCCAcTi5jpzK3+OO/VA2wgXFYq2Xhi1EM91cQ0i0KkyH6VCgAYCPOg876VI9CEi2fBC4f+qGfqb+qAFl1S8ICi3YODIyxAQoM96o0DGHyZhm14TKvzcCfWRTiv0WCNPyuGBV++KSw6IDQSDUDukFYDkOEdY3aiNHPCAu1v8i6Uz0KxroUjrSSAM2D5lW5ZtF5Xak/LIpxiw5DhSUjMgljwb5Em3WzcaKNVgAIM7POIe9dzIgOqXtjlMuDC22cDY3Cl2b4iaydgDCvjY2eFAoA9KQb7CAQBWY6NN+hE/6Atr0IhhsopQVPJ8ViVQasDrooLNtNZxUdhtnCItP1DheFBZO32XB7WTuCsf0Mf7iSSftDAx80nXyZP0/SQP+2Gxpswy2H5oRnQg5tdgtT1BZs0p9CAYCZr2X9+vX9x14Qcl5e3mfuFmKyGvyX2MsKq2+MrjJQs+AxaNZGwqIXL5CRqBHXMsV/2YYhxOvRgFUIYDmNm0PamWlthPTrQWixBLE3LyPgtGD9EmVuQPAfUs4fe99Gw8OaCeO+NXWEF5kI5n3KZE68QOcc0Du33qPcmTHaqzpdxXt3VuAPPgbGpCoDbRadHK4OxS1qIxFKmA1lBgH8QttC9Jd69uy5vc+5KLzvqaeeupvDyPy69PBFaoHDE4JrEHZmz+ZMSpkf9+/fv74Xs8Zoh+gIh5oChpH1NDwjFNdgruLphN3tLOOo5yvkC0e01ToFRn3DQ4EqBPjopmYpD+SSW1g2HoZKvTJFAdLgMxgq/p4ylHF9BPEPaEh74jb644jCQ1B9MOx+jhsabllovIu/pcM+Zs0Awv4Wy4RzoBv+1GT+6tIs+OmusOQVuYyI0RuA4XGZw9BEGv4sduX4jh07dqGB3X1cgVHuSqN6I5hzwZdkPhr7gApMtALSrkf4yLRnS4ZsK8r2poF3Qn+NDU6znfn1M4Q13ldjJ9rSo80RUlto+292X5SGfElQahj8VflGmh1FH/gNNwxQd9h9ZACNuMSh4YJQpswkGqdrnEwrGPPItPEOQeP12/CUJ5ZfQXil8SnORpsnlZGWfumTbzWCXkr8Kuu1jJ1iPv1oWagXAYZbc6sSevXq1Y86veDRUXBejN4ArHkKGSKr1S4FYANlUjc10LDDRwIOOxuS8uk3j+nGiUnQqbyuaLzhbJrmt+5Un2i8wkx51DI0dwVaF85/ViVkCwseRsfoDeAMx4z4MzK8AUN+GORxm8UI4W163a8WPDf+DgXfpXfXKlAbQrzHo023jDdQehukM5domv+B8MbI93Dfo3LDH5mmn3hvjAw3SYLGeRvl+9DxNkn9i6nP2yo/JH0+w/k8X7dHtqsM+vTpE4QFrxsLK4HPm7AdB7LuaczaqAB/Y8OM4QMIHzBs2LADEdQfoya817dv367+jLt3794Hsjw4ADt1KL1yGJU11RVJO4TwwXSIblOWAs2YJQ/XL5LejHxHUN44f9x9KDRDuYEDBzbyh92DBw8+3D/Zx1m6ygE+MsJCq8+J0eUHNO9x0KG32KVBjN6ioNKEhT2ZqmYxJD5Qo2L0FgXFhHV2jC4/QOQJUCP8NkOrUYzeogBTcBKjJxh42plZOJcbENRjStxhiG3Jj9FbFKhZ2OSwzsJGnxGjyw/MTo9KBGJb7MEQJrSeCkuloK0l/mNjk8B651HXSKjpXGbPzT4YUhOB2bkbwgobabDi7ykR0iNqFsNxAcOwRnx9X9nAcik8KdVmIayKa5bCkggqWmMO4FY2IKzwpDTa5oo/5UBYD0ciJWqWj3DYy+3A8iJc7XtcvC6Y1XDmil+2WOFqYPKFA/zMOuHqYE/JiIbJt5NlEp1slI5plmcJkyknQi+EMc6ZK4cto2u5xo0b/wgjXuJ9yShBZ9qZ+7FyeUADLxGGYonHJDt06FAAo/9mPbaKRi8Hl+myZllB/Eps3gr8S0XTaITp4dY23E8Rgjem6fcWNzfX/n3AvxDoD0i8b7aD33Kgt66FMpQPSP0hTJpPYS0jPS//Xwb+ln1mToGhBJ3ULGhrbir+gkRhRc0qcTaEIV9ShqcE2UhvhQ2zfgWe4nSN9x2k4RQnuqYzTUxpCd1cpzQx5Zc//b4YMY9x8JvJY3x+fr4/Mcl5pSZKEDQr0qm4sCDysBXDQIma5QNChsL1zJa/w52BOx2cgf854yg3o127dtMQ9lOg7rRu3bo9RblphYWFKfwMPfwcZV4k7gVcaRmWjjRnQGe6L2s7duw4LdKbRvwzaLbuZPBx8AnCU81DuenMdC9A+4/EewAm516zR48eHRFSeqy8WaeVw8U94BwaVy9Gb1GgsNQstR/NrPjSAWE95liGUI25uKeywVdhapbCYigWPXJUHoBI+IQOIgtR6RrxCV1lA8P/eOxbeqyc+3lWWQD1DN9IMwy3WGG53cEmB2Exq26+sNAsLxsr9R84rreKo/G+oL3wwsx15pmPkIxLaJ5ApBSQnuV8e5RdVvT7Z9F08mWuNxfxl0q70oWFZpX41MGvQxHm2IKCgl8zTd9DmXsxlPeJhhs1auSvih9mSD9IWviUjbwP4j5oHEuIh8DfEHcXU/yvyHtXCXg36OdxD0nD8hEnQvdh4h+GjvSs118ky8OvqX9i8+bNT4fVnB8sVKqwfPinsFgF5xRWvXr1WsBU5uUEC8LwEkK/qF8auinecIrL9men5cJEM9WR4rP9psdJKay3XD8huBUsKTa6t0aodGFRcYma5fqLPH+iwjkw538L54owKRqeB/oiwts63sbv3VYeBXjbsPGmEzcfdwE05hZHaUNrPm74TRdlFlqGuIDGkc/fdy3EPw//bOtGqAsIL0SzHmS45lxnFRPWuTG6/MAs8aREwHcQVvbFN0Xg8ccf3xpmvCR/1+yL8w17+f2YMWP2AfeNF+fXJ+9PCO+fLs6/+OKL9xk7duwexO/lxfeWSZjoeKl+9iX5XqCvP+vy/J+Q58fk3TOWsbwX5+/56quvlviWiL1mT5RindqJcCv+WBmb8rTCoqfeZiW8RT5WRgn6J81ihFR8ncVYD09KVXW2F1X+R7gvAlCCcA4egflYuehHA+UBhqGfmGhAt9iHf26k0wqe9lb8EQ1a9VicZRaz3dkiX1iw6W7PbL5Wm4XAih5mKw9A4OG8vDzPkb7Pzr1JjN6igJ3JIDRqvcsf3P4xuvzQsmXLK6PNcjzPOnbDfyP8H8XkFi1a+P+Kx8FnWrVqNR3c6B8WxiFo/z3xGNPyFPI+gf+3TOWTiX+CuMcJP4T/UfBpcAr0xVz/rzAc/n+R6ifPb+UHDP+vkC51Pknd/rfC+qfhBn/E6aT5D4uHGC3+42IyM6G/mHAmXEP5drHp5YcePXrsiqBeQeJhkafL+A6uAtSe6afC4BZH4zGeoYx+86e8+kXTpJXKJJrF0foTPfPo2sjEj5jNR/F6Et2UP9Gyblb8nkH7NUuXMt3HVSKwaNsfQg+gYf5/1Z90hB90EPanGZ/Qy+GxLv6NkGEcfvgB/odeCz8JIW/mZx+EP4LZj8kbfvYBrVJ/9gGGePJnXOPg61NohR9+WCfx4XF1dnnT5Fm0TrQ4/YBkERo3hh1Kme/iKhWYXr+Oym6Dqm+bkN7wX6bfQ5A7ZiP5dsjGdu3abZ9dDlpFaOi2bdv2u8XLZaN0pWO+VJaGbqcrveQ33by+HMl6obGjbqIhsgfdjllwB8v5k6K06a+DOqiDOoiAafmOpoQ14B6YEI/b/5jJdu9sNC4h9jaDxfNtCvv27bu35Xr27LkP4Z9Ab9+EhkuKKwkLCwv3IV+Gr2x/LrResXh8v379Qhxl98Tdc9CgQYFP/SeeeOIPic98RlAHpQALgZ0bNWrUk7XxdaxsJrGy+Sv4JhP3HCbwuaDuHCbvDDLBzxXxB2S+mlMRZOEwhwXEPPwLcBdmoeGN4swHzi+GmXjozZVmRP0BKZsL50UsEs98Pc8ytH+myIJnjohMZoJ/QBb+nah59ncqdRABy/QVFjR7IsiTEdp0lstLEaKPIMOzYIQXluIJTUuYHW8+ESXL+MuK2XTE7DqysSx5ErrUz0bjrEv+yoqWcRuhaxiFLYLQ87W4j3bvxt/K3/8pU9K+yoLUp6sbffvzPwOsln+EpTqvcePG//bGEJUJRbMzVhcUFMwi/gWENgNhPYdFeg4Be5ttETSOPM+L+HVfoDNeIM2/ohRHf/5RBMnrpa/P61oX+KxImjg9onHToS+aZwb5RS/uCH7TRf3w/xw0f6cb8xTnO9UvT17pkEHyvgidPyAXPzw1z+8Jz6T9nhZajxsUS4UlLfhx/YBjAgOyKTuY4j8Bd7fxv7XjQCgNENRDCCVcoefGHncpAnoEpQt/qKqD8Gl5t+bNmzsAVion5BWUCiUPb/NQuPSQZD7hazp16nRQtgXDeqUXVf8bCsbU14g11SMoVLolQUHNb9269TgWp1vkxywVATYxbVCcyfvss89SLTtKFu5b0VoptyQ7kXzrkadvXm8lvfj94v8bioUA8lGuhxlpa6JQNPHzEdpVXbbQLw4qAkyLnZgWp2GhVqhEToMozcfsnG/r0KFDb+R4LcsGX72HpUTLli2DshH/LnL9JYP1UMhkXq9v8Q/jUKi8XIqFYK6sU6z/AgrVg+nuRZRltQqjnJDX+yjbT1GkbzvtIbdODRo0uAtc6FsnrZmoEqJgH4BeonQwceEqCUEF2yKVTMViB/MwjQ6KpRAQ3DwsVt1UmAUsyDtjdZ5BTiuQWbBGhN9nLXqZrxFiNq+++CYDtfn+++9/R8OGDd8xn9OmCqafsu9T7mYGbrPs52D0wdfI4y5yy1CyUhTrijrF+i9gmbq4G0VeYfEuEvYE2Zhcx+20YihX/n777Xc1CvY28g2PcJwmVTLKO23eicxb4CYF23IsFw3OV7EQWGYqBOsUqxggDxVrOlPcSpXEAcjU+C5K8jPCJb4Od9rLz88/GuW6HUV7m6kwXGfH5igoGDL3wbM3KB3ZLuv/OrV+ekSJGmO6f4ubvq5SaHMx1WN79OixRX4BWxFAEdoxhU1GsZaqWA5CLJCbnPNRkMy9sCWBx9eR77GU9+K3YMGcGpU38ncNNo/BfTvKe1yO52C1D2jIQTTInxKsx58Or8zFZF/eaQv9tLoigDw6o0DPIKcVKoOIvD5kKrysd+/eZT7Ag9JsgxId06hRownuIrV8PpTWiqmsxC8GXZ9V/p8JqxMYRejSwZOzFQv06p26xw1Z0KZNm0IUYDpKEdZYKgTuh8jq5yhcuf6nJ/Tp0+fb0DiGHeTtLvKlp3Idc8yGy+RROr8SuIGwh/Kzp8Uv+xpOjOGaCShTUxoyRbOMqU8Cm8dIHM+itG6NFYFprxCL4rvUlcrIQYiifeCusGMpf+LdFPh1F/JvhpW6Fdp+vpLZQbL29YtT/4JwB31zYAmvimomYLEOo2FP5lKsusX7f4E1ZyGyehZLslKrrgKgaF7OdnH244aKgpfI7bPPPs3YRd5IHeHvEFovrZj9gtItJv56FK1p9iIfqJnKpWLB7JNpFCKoMBWiWFe2ryE/CK4JwBqrK5bEHxUHxXIgoljvILNSd4Xlhfr1638dS3UYU+QNWDE/kgtrMB9VqGwOehTN2+ybmTcWq3mQrVgyrtDAeYyWcXVT4X/Bxw3IZ4YWy12cC23CPgD1VwIVngpLgjhFHoKC3ZSfn6+ChV+Oa73gQZyN/3os2pHpZXeNApToYAQV7rpTWLoo2QJMv9fcbpGfkVUE6NSuyOc5rMkqZaR1p2P9jPcS5FU5XyvkAH+kRB1Holw3g/O1lE6P1q+C0X3z8d8If81Q8Myroi8cENYhjIwpyWJFxVrICL2WNdYWeQ9ERcCpkOnIc2cr7VytFnJ616nQL0RitioDrRJTYsuCgoJfYcXesX4X+WmKRMEWoei3sv46En6++CkyKZbCchSoYPgXYrGuYbdTp1gRGGg96LgX6NDVDj47k459D7wU/3djtioHF/lYp8Yokv9h8Vu1oFwqGUua8ByM/ruDgXDE59V0AXFOULGAjGLpEregdevWV2+pX1RXBJBNDzrzRTpvtXKi4zyPtZZp6e+gi+nzkNto8BwG52hQ9xzkeRY4Cr//JT0FHIH/1Bg+HZojGdinE/afpCNRGv/tMNIypPlP00GkDYbuSOo9k/ih1DuMvrm7U6dO3qQR/mOlYrkGY9MV/NB+F15vhdah+Kt/DUbFB8K8D0izLdb8Nm3aXOkXnTHb/zww0DrRuU+zzgm7QjvQ3RpxYTBqOZBlcA2LyjKh+UwT9Wejeen8TDkULU21IV3XOnVTuvlNk15SKvsvxZmPMmtBj1q3ic2oPoAZzWr4z7RMRabnt2rVqk6xssB7x7BMP0c+M1k0rwfXsZD3OLf/rl5D/FrDWIm1KIW4Tn/CGFcEiV/DminQQf7+NWI1U9lnxH0GPXENadLRKoV6KLeGui33Ge4KcEleXt5yyoUfjqdpUeVSEaExGxxAXPV+2IFgGlPx42nE4E+KdVWdYhWBL7koZvr5PrLZG+tUQGcdwlr0UKamg8AmdGYT4g4QsWgFdHI+/kbI9QDSDmYQN8XKHcY0mkHSD0dhD2eGaAqNgCnNeHd7+I8QqasZNJsSL/0DiTu4bdu21ruX9ZF+FnX8hT5M93Hbl7PwD/LxRWxH9QCVNoKRcFt80nL882Dyyron77UHXNQXFha2QXG9ZHU1ChumRizcbCze4AsvvLB6d4pMf55590/b4ReYWi4tFqOi7iV0LQJ/Ao417YglneQ0a1+KTK9vabGqXbGwUnlU/lsqX59lseZikq+oO49Ve4Bp+jvt2rVzgzE5rv3Cgh9rNUuLVe1TIYpUgIZvtMZi/q77mKIWgS+mO3To0NapkH78zKlQi4VSvUn/Dqx2i4USNQTTPwjCVIiyhROkrLH2jdnqoIYDirO1UyHrqknsFIPFcvZBqd7CP7BcFssnqyeffPJ3BgwY8D22w9/VHHqz88SJE73R+ZseJmOttK1pXizl8VjzGG/Zyy+/fNvOnTv7he/v0zMZNFzL9WHHjh3v8bdzlNmmb9++O/fs2XN7F4iU39YLrBgdO/l5PuEfulNyxEjXP956QTN5t3PeHzx48NbWfc4552yLf1vpjRw5cjv82/u3D9J2Gjp06I6GqW9Xb56B393Zkf7A+IEDB+5inAjt3WjrD6hnR+j/0DTq3020LLR3GTRo0I8sa75Ro0ZtP3r06O9aZ2z/NsOGDfuusoki3GJAPaAfPIw4BUUKx8ydgVxjoWAn2/6YdWNAIF9mW9oIRRiDEjyBNr4Cvsb05Y8g30ApXqtfv/7r++677xv5+fn/hqA3pLzFnDu7QYMGsxs1auR8+xZpM8n3ZkFBgfcn+1PHYDpRwvDQL+JqaH6Ql5c3j/zzLEv+mZbBP49RMZf02ZSdJdKAN6E9E34M2xj9b5FvFuUDwsdbxkHDnYq3uHihxnz884n3fuVwXzO0FhHnt3kLqSP92DLEQ2MB9S+Ehncze4RkAeXMtwgai3ClOQ+cQ/5ZiQfyh/p1yfMq2/jJbNVPozP2o+21/vIOFYe2dKffpqpYGgkVSzngP80BFbMWBUc+VsG/Fz+CgFYirPR2OxBA+MH16a+K4VbTODWXaS2gaT5AE81rWgrrpxOCxZKppGTGWy5tXw1bNpU3LcWZnl134kf6ac4XzZPqzKaFEAImv/yYP/EojVTWOsxj+7NppnpS/eZLvBuf6kSG0l9J2sOtWrXyV4+1+quY0hSLNo9yJolZi4LmnenncgTxtp2vsNi5BYFKJBFScKZlCzMJWb+doWs50+0Y0bCfJCHkQEOltQzWMaQZZznp2oG+Qkgdbrp5k5KTbz3ueusSjbMuUV6wGIGWtKUjTWmohCmf8aZbb6KbeLa8dE0TTUt1JL/lHRyJnrStM9EWzYf10+p3Z2lQs8+QbwJULJYvPZDRNGQTfoVp+/B7k/7pm1KsK1Emv6QNwlbAFPoUYk9gkUbREV1I82uSnoR7oiTHE9cDIXZil9fZMP4+KNBQrJ9nte8hzquD5qGs4Xs5GbID7VQ73I6zM1In6lexGzZsqPI5l3sR2lTojiWtB/wcynTjI4w8ePHp8xHUcaK84z5NXs8PfWajVTLrsC7rVFnkwXpsY6qPvI7AReR7Dt6voa4BpLUCj/SJNDI52nd5rP3OYNTeS9tfocwnWKWg3NKQvoNAmsYlwVPfq/DQ3zVgFHWtBBWLNa/9+zRyLaJY+EueCl2wUnAcQvMMUBK4Pxj7gI4cU6JGbgJcxLOI3oVO6QhT18GEa7a1drAdb0fIZLIqhun0T+lQL30+hU6t59ovktskuLguLCwcDD0//lyaOllUwbTC1qHyohhLqWuGA8EFeiSxSXAh27179yO08LTpH7RlVVJY2yRtB6Z+3H+hcCeVKPhaAnEq7JlDsfxXyOlu8GLWooBS7UiHKKhwyMtCdjZE/AP7T4n/QcyaAQXM7mkP1me7DR8+fCd3VV27dt3Z3VvMshEwfRwAXouw35F+QjsCBfZPB/NI/7mPIlDKjdYlHkhzt8fObi/rYyeW8+NL86Aww6H7Mp0eHs5qpexsp2EEMwuL+nNo/CQWKQLuMN0pItB9aefu7IY3OnfuP0vg41j4f4h6VlqHg0OMQre+l2lrT7frsVitBBWLPumFHjxTXLEwQqVbLEbtlXSqv+EPI1xB0QnvgT916x+zKvSvEW4AwYuo5M9U8DruPymnNfoXlT1P+C7KD4OOL0qLbL9h8MdYpPFYjHBrivVYH2Xeov7zaMTuMWsA+PoKnXUw6RdA31cK3jbvg7nXcJ+Gjwsod4iPJGKRAG77iRuNMNzJBeWN7fKi9XHFrZSPO+DtIHZzF0HP2/vcec5m5/oGMpiMNT8b3jY6Q4YSH0X+e8n7ETxmpnbrJO4fKHTfK664ouTteC0A2rgNhkfFepY2FlEs2nqqj1pi1qKgYjGCxzFdvJutWHT8B+DFWqKYNfz1rH///irMDQhuiXm1Bq4xHK2Gibcjl+O/n3h/ZJGxPk6PTHOHwKB3OgQGRfI+Sf3e85QB6v0W5Y+hAY/Ch0dBgoJYj9Oa5ej4VcQ9i7J2y5428X8dPrsyDbuTWWVZ3HUoyD+6dOlyYswWQMvHOvMY2nxfgwYNlju1aUlRmLDjdRolzo9J3eW191mZFjWiit8WXv6sUllOl7zK7+/Iptf48eNLtOK1AVQsZNYHOUxXhqnP8PsrrtN8rhizFgU6cAdG6iV04oKkWAoH/wcQ8Cn5njGrihEUC4Fdh+DCKE35VTAFq6tg2RW9Sh70tuj06Kdf0L0LBVynElJ2FfXf41XXMUsAppqGdOyV5FlgPhUqdVx2fSiEf/q9NLseFZipMx+r9Qvq+kR+yLOKup9nCuwWswVw6kOxxqBIPj8LU6b0LRPLBUEi2NXQe6tNmzb+gOR6RvC1uDdRbhr4IeHAj/mlg1XeYiwWitUT/XgGeQTFUkboh7vCU5wqY9aiwMLs+3TsBXTcLAWptVI4KIUXegXFcnSa1yfvdMyhVHIbhP0XRqajk1B9jqOFoPI/Ed8R61HkISGjfhfK3swU42Ezy62Ahzt79Oixd8wSgAbtiyX9GdZolrQTbyqUA8BwrNv/c4y1HbFoUKzTTjvtAJTgJvj41PzwtoLwVBS2Y8wWgDq2Q2EuRDkWWk+2AltfwhRWsPrlQ79tRh4hrMCj0MVX4X3Iueeem/MPy7UFXE+jA10ZRE/RtsxzLNo3C/8QlxExa1FAqNtjGS5AMEGxLKhw6PgPUazLsSR7xaxhiqFjDmN03kFe/xMeOkFUsKlsrPgN8gwhbftYPABKvA9pd2DR1lGH+ddA7z6mtx/HLAFcXNPZP2W68wl36HCtgvWI1m19uP5U5lIanlEslRnLeiSL+LvJo0Uz3wrqeIo1YoeYLYAjEhl4kM3bndcn6+g0qAJZt3KBfmZnaVg38WI+25yUzjTa9aq7zssuu2xLUKxuyPgp+i398V+rPBs5DC1RsRzpCMwrc2ZaQKHYEVidDwlfhWLVSxbLF45s6w8k7wSszacpfxrBqcOtnEpfIdzXjgsVRcAy+Qf/m6njMzsIWkuwJLdlK7CAYtRHCceSz7k8YxWkbdg6RWgsAcdmK5b8nnHGGfXp2HGkfaiygCuwlk8x7RVRLNcImHoto5dlZOhaxnpUKAcOQg1TnDyg8JlnV8rAcqmsSmk5yr9G2WEoeZV9G1gdoGIxGP1E7UlkmTmPhX827T/ZNzcxa1HIZbEUkoqFf5y/+ohZwxpr6NChBeS9GcXyF1XBiihMUWHbCcYj8H9S8UZrLC0W9O+Avuezre8zOvVeFLzIVMg2dj/WRJeSZ7b5rMcOtWOTQlsXfhfcY/FnFpEqFnN/AYp0LekfqxDgMgbQZNpT5EdorrEYkeeT5jvGQNs6UluMUyYpLirUehTNh6ThEKPtNa955Es5Ut+/UKzBvrCOVdVKSIpF/z5Jm8JLaNtM/82hX4aW9NgnWCwUawwFfcEbBCOqWBQcz6hXsYLFmjFjxlcHDhzYBEXQ4oSp0EoUpCPasAqgm5+f/1JBQUGr4musDh061KcT7qLMOjuc8muhdz9Wq8jhP58lofRjyPtmqkfXDlSJ5dV6CX8I/xd1y/q4090rlugoFNM/O4SHpdS1AsWcSnuLrLHic5rToPka/IY64CczYFQspkjrm4VVvZUp+iTotqLOluQ7zrpRtpnyZVn5Uhbg31GsEz3pEauqlaBi0e4utPFJ2rTWQWQ78fsxxZASFUuLhfJcgGAyFitaHBfFN9FhjZJyvPTSS19z8Q5h10jLFHr2KEUZ7QS/AvkbHXM2SrRTqCSCR02oqxfW7g+uXSxvWXAqjDeN2QL4DIuF9a503lgasbBBgwaBvvntPJUA5V1MuduwQs0oknms4VqwX79+J1LXHyjrVyi2aT2KMhMs8lNQrZtWC/77wvufWNP5VUyyOq6xnLJtz5DidxlQz/ewdCOQ2evJsulaFnwFRe5Pnkq/f6E6IQ68bshtKoYms3iPM0nJFispFgriEZWMYOi4jyh4NZ22X1pj2dmE/TtXXzr9BqzMvUxt92AF7mbtchsL+8vI04f0zCOKBFoRnwPRQS/C3Jo0fdjpdOg7dOIvUJKN/nbrro3ptCn0T4XPm6jzfvy/wiJdgFU7Gv6LzPHy6glV6PpIY0VUqmB9aOMK6r8bi3MIHV7kdZEPf2nHfvA+gAFxPbz+0qmUvP1ytceRDC9DoPkS9QTldZBZj8JHlq+hWENZ69XqNVZxxVI/bCv+0hUrToWZNVa0IBb0OdVVdFy53tnlAhRuL2iNRIF+jwVYpUKlBbBoZ2CNVmIpHsPftsQF4SYAPrfHgvSlY30q70v0pFChTQoFBV5GPd6C0478FTqYN2LEiHrI5UJ4fg0LFyybypvao2IR97qL99r+uEHFwph0Y0BOpU2ZxbtTITis1McNjMwL6ew5KpaF7Ag6wX/G/qJnz571YtYygSPfU6Fo+aGM9lOgdQ8d8AodudxOVvB2cpwuMtYkrVGo193oVNzTiWsEnVI/48ZCfmfIkCGHsQ74KXV5z9QnKpBtkHbyI5hQj3Hk8VGHB/gepY4RtH+Tn6PRLn/teizlr6T8P8FVykp6qS7RONsF7VeYxvvV9jWWu3pkHB6QKjf7yHYiV3+9chppudvHit9/2V5BwXcUiB2RCiP0Txl1cxDQK1iCl8C/ga9g4f6Z0DDW5x/ke4X8r1GZCur3/d4CHN4tRUZCB6hYKI6CD/UYpyua13yxY/wK+GPivFPLZ0J/RlGnwu8krOzTdPJfqPfflFtMvnDjsHSlo5Jap7STX7qJlxQX61nHyPMny68ztT2HLCbhPg79KdQ5w3aT9iZlPWm6jHrcEWbqkk5yrc96XAuylHiZcHevC4qirpXg+hPlOhE5+COp8OQ99tNC+vJclgQ/jFmLgmsYBDeKjK8q6GzBKzAxdbjCNI9oWEzhbEEbrx9lC7TsCNF4w+66nApT3tThWhQti8qXFC7REqWhQlpfirNsdnnL6hoWpSMmv/WnfKJhy0sz8Znak2iLqb7iNFO8fNte/So5FvFP0Gqd1qe1FVQsljL96LPnkUvZFcsFOdPNvhT0vPvrWgo7LwlWQvoTZgs5oXHJYqSOtYPcXZmGtgfU72g2LZW1jGHL64qpLutODUn1JH8Km09FSMqQyiS6iV52XKrLcKKV0lN9YopLaDi7XulYbwpHS+V08Vcs3yg2F5kX+LUVPKjI5qkf/RcUK8kBdwF9PbpExUrgIgwF+zGjriPWZDTuL8Cb8d+I0l0P4WtxfyESd12Mvxm8iSkx42cKuRFlvYWd1ZNYg/cc1VoFOwRGVhM/E7yfMtcw1dzCtHObrjRAad0K3kHcXaT9ig4S72Qa/KVh4u82Dv8vqet28DZpiPpJuyPmN9+94D3Udw/hQMd0aNwZad0L/ppyAc2HK91AyzpYf/0KfsS78MvrjdC4hvSrSL8K92asvjvjO3F/jnsicqzvWjOKtlZDSYqFfz4G5By/WopZqweYGvIYyY+iWOHptM+dwLkoq3+myHnIrg5qHtQ4xaLSw2DAN+KBERFl+4DF9539+vXz65U6qAVQExXrYCzVU1orGdFlKnyXqeI2dhn+FaEOagF4sNHXWCjW71lTeoQ8o1gscc4cPnx4hb6JqDBQeSMqn6SGiy6WWWe9zbrkJnYZjWK2OqjhEC1WfxTrBfowcz8WrhbrbL8qj1mrB7BQ+Wj4YyqV1krFQtHqbk2uZXDhhRdug8U6gY2Z/1TMPG6gX+egWCN9HBGzVg+gVPlsvx+FkcxPmoiby27yCqbDumuMagn4TvT444/vzqZrKn2YfdAvnCD1To+YtXqgcePGDVEsb4ELrwFULNB/Qo/3JXHMVgc1HFQsZpiubLzCQb84DQbFIjy02v9egRLlUfkj2YqFv+467loGKhY7+XA0OSlWXNp4cctwb/6JWasHYEDF8jOvMC/XKVbtBBWL/urCemoK/Zl9Hssbhapfsajcy20fUctlBjfsJFq1alXuG/1cIGKNj2QaPReTfCvz/e3grazXJuDeIhI/wXCMM+12kZF2O0K5DfcWwj7dv1GXPDdZDn5uad++/c1t27a9kXzXi6TfwGL1evJeJ+K/jvjrGCzX0xb/L3Mjm5CbCfsXhwlHHHHELdC/mTxF0LiExXiUZ/P4puEm6vdp/vUMuutEds6eB7teHuRFnsEQFikb0HYQvgn0DUmgSR03icbJA31wMzwavqhjx45d2JEX+Sh4U6DioFidaMNkjEPmBCl0Sz82U1WANntVpJfbhhMOhDWh8xBYuX82jsD8IfffkoJKK6GjpziaT0yvk8ynxVQgYipnnuSaN6FxCC7UZf6UTzRON73QNt1w4sf0XJjSRXkxLtHz3WyKs17DuqlO60+8pzKJZnaa/mwe9CfefI/ZsGHD9/Ly8i6B79Lf72VBccVK9ahY1FHyQb+qAhoULBbMZE+FFVq804nNKH8vdPwrlnclrAZXRTScMMShHKJ5ViOE1ZRfhWBWMoJXgMsJLydtBa7hFeRdQXg5rl9w61+B8AOaZj4Rv/deeVAx0Ae9WE70muqA1lUSkl93pSgt6pHeCngLfBCf4ck48+EPfJN/GbwtpYxfoC9BFn7Wtky+ybccOmIoI8b2yo/KsAb8BPwz4cEM7DIvuJNiQXsyCp+ZCps0aRLOvPutacxaPQATSbHWOmIcgbgV/ov9Nddcs93w4cMbY3rb9u3bt0O/fv3a9+/fv11xNN70bBwwYEB7y1Fv6z59+rRiam01aNCg1sS3GTJkSBv9xrGeaDVixIjWp556apuRI0e2hl5rpo6Qj7Q2w4YNazt06NB2YIeBAwd2JL3zSSed1Ik6O+J2EFOdufg74YQTgkvZ4LKNb0untenZs2cb65E/Xcq2sc7evXu3NY9xlG0J/eOIb0F6wpa0q5Xp1BnQMtZDe7wOoBMWpSt8F9LGo4mrR7hcP9dUseCrI4o6iT7MKBYW0FsNB/qBTcxaPcDoaELFj2mxZEblwq27jruWQXzc0Bnr94SKRb+GqZB+nUN4+IXVfZsO8+9BaPUk3HCVkFoOQ+HJO4vIuifvtQQ8887SJVwVmaZC+xPF8o7Wc5gBqveVDnPy4ShW+Nk464O0mFzIrudaTHedYtUSOOuss/6P6bgnG6hwKUhSLPo1HPRjaq7e0w0qFqayiGLhX8S2/joYzYvZ6qCGw6YUi6myzDvMSoFcioXFWtymTZsbWLBu9P1gaeC5cZ+XUHZ3djUF0Gusm/CYY45pTCObGJ+Q+huJpoEHkd4UPEJs0aLFYQjq0IRMz+HPWJj78Gcs0bAuZZuJpoH+acu68onLSy48NMyFdEBeNqY46iyA/sHWKz/QPdI6Ut36SQ9/5sriR/+RlCX7UUemdhB3CHgAtJokJM+B8irqJ+6gDh061Gem8M7+cl22W+MUCyE2qyzFsjNpzJ3Qe6fxhv/5rWea9Sue8O895nvRnzMGZC3g3Vvp333hv3ygN8msJ79f5XiuKOQlHPJDM6D+lEfUn0XDvH4TsBr/anjx337pH4Blxlh+jfQiXeuRF9sk/cC7GOPlNcMP8dk8SScg/G+E8LfW07v4VyP/V1G24a1atSrzs6cap1hUnFEslCztCiukWAi0BfhSVE4bFXYmNlClxTIFtB7Dxpuu37iUljA7bJ7i+VI4F5qHzsnkTTyUBc2b8qeyCRPtbB5SvuTPFU7lkzyyw6bT+UFeKJ4Lbq9NuLBdsa/HS4OkWFjFp4spVvhKx0uFY9bqARqgYoUTpAojKRZrrBvYSZRLsQYPHrz1CSecsB/mvBuKeTo0zkA4o/Cfif/shITP0SXtLNH09u3bnwGew070AvCiTp06Xdy5c+dL2OlcCv4cHEtYvKSwsNCrMS/Dvdw0/SJpl5oOXkTaGPBc/OdBaww8nU9do6nj7JIw8QOeqWsZePkZaZcSvgz3EvBn8ifqJ/5i48l7cfRfGvGSGL4I96fgGNp8Hu5oMNRB2tnwOBrex8DjT8HzwWHEHYuSFLlPY1NQ4xTLdQCMPJWsi4oFQ+/S2bcxz3s3aR3UAvCBau/evcMdpE7DGgktNn3pCdJR1X7dOAp1KPO7Z3jCQb84jS3yZSrWoG5XWEuA2WJbDIEfU/yOPg1n3mNffjGKhUbnMa8/ipav11rJDIzNh8GrUay6g361BHzyzlQYDvrRl+H1nDMQfTmH9eAppses1QNup2HgCRaMYRrUasHcYtYA15d38V4HXxz4rhBDkPl1r+srFctvRJmRhlX70WQWdvkokydIg5a71kLDF3veiEVl3Y8wawl8/vnnX44voacwA4W+jMo1m/4cCFbvS2gW6fthoR5gCvzMra6LPhaAHgnxxpqL2aUUsgNqww6mlS67n7a6xLdmx9UK5WvFSGkNtmM30wm3UMTadSoPQrMT5duDbaQrTepoR3x76zSOtJa6sf52+AMvWFfzHke4Bfy0MI/pYMeI8hbK5ELryIWAaYGfVDf5WxvHDi/IBD6PM00ejDM9ofkSWk+UUXt47IC/I/5OKoNoXIovLhvigkzJJ3raooV1sQ62ba3J0wZDoPJMxEi8Yx+qVC5rmBa9WvSE2N3VB+wktqHjvLBrMkys8IIyTGm4kQUGfVi5kmlyKcwtAXWXGRZh3LgQz8jwzNEKLN5KkfCKsqLlRPzLpQXtJSj5Uur2mkvPXy0DvXV5CTwusW7iPfe0zPzkEz8l3RuiPyV+CfQSP8uJXwbKr24uNI91B9Sf6oWGVy+FeolfYl2x/iQT6w0yiHEZJD6D8hsx0AblzZsMxRQXMMklK49/3Egov9Zpm1coJ+uir9agWGE5Q3xwMQ7zUMBxKN4Xd8Sc0dgY63UZpvTPNMoOyr4KJ5zTQqDJvGbWYzbGOPOINDjjLytaRvrSdbQZlr5+000TjcuuP4XlI+VLfBmWX2mlPJYrDyb+RMPSkadEy7BbegehYetPvJeE2TQT3dIwO28qn+LlA4MQXGcb1lK6q+Bh9rHHHvsQ1qwnO8XqXbSXBD761+QzDZ6Gkl0G05eLNGAsC33vab+ceH/IeTmCNe0K4saT/yrM8TUo5y8w0deQtwi6yywNEcTV0L2KjhtvHdAIqF+ExuXQD651y4Px8gYfYynnVd8p/grKjvfcvoj/SuLFq8qCKMvVtFeerqK+K6EnT156F1B/Quq8gvrHeZQb/sZRdrxtAPUHhNZ48CryKwtvArpGGYGh3daXC6F9FXgl/kRzPEo1DqW6HJmNY4odl+QB7cuZmi9gquwxbNiwInfx10EdVDFstdX/A4UH79n202X8AAAAAElFTkSuQmCC;" vertex="1" parent="1">
          <mxGeometry x="60" y="475" width="78.95" height="90" as="geometry" />
        </mxCell>
        <mxCell id="JH7_bKmLKvwizB0ivAQK-7" value="" style="rounded=0;whiteSpace=wrap;html=1;fillColor=none;" vertex="1" parent="1">
          <mxGeometry x="22.12" y="230" width="157.88" height="390" as="geometry" />
        </mxCell>
        <mxCell id="JH7_bKmLKvwizB0ivAQK-8" value="&lt;b&gt;PDF / DOC / JPEG&lt;/b&gt;" style="text;html=1;align=center;verticalAlign=middle;whiteSpace=wrap;rounded=0;" vertex="1" parent="1">
          <mxGeometry x="22.12" y="590" width="157.88" height="30" as="geometry" />
        </mxCell>
        <mxCell id="JH7_bKmLKvwizB0ivAQK-9" value="&lt;b&gt;Corporate Repositories/&lt;/b&gt;&lt;div&gt;&lt;b&gt;Data Sources&lt;/b&gt;&lt;/div&gt;" style="text;html=1;align=center;verticalAlign=middle;whiteSpace=wrap;rounded=0;" vertex="1" parent="1">
          <mxGeometry x="21.28" y="632" width="157.88" height="30" as="geometry" />
        </mxCell>
      </root>
    </mxGraphModel>
  </diagram>
</mxfile>
